  0
SECTION
  2
HEADER
  9
$ANGBASE
  50
0.0
  9
$ANGDIR
  70
1
  9
$MEASUREMENT
  70
1
  0
ENDSEC
  0
SECTION
  2
TABLES
  0
TABLE
  2
LTYPE
  70
4
  0
LTYPE
  5
40F
  2
CONTINUOUS
  70
0
  3
Solid line
  72
65
  73
0
  40
0.0
  0
LTYPE
  5
410
  2
DASHDOT
 70
0
  3
Dash Dot ____ _ ____ _
 72
65
 73
4
 40
2.0
 49
1.25
 49
-0.25
 49
0.25
 49
-0.25
  0
LTYPE
  5
411
  2
DASHED
 70
0
  3
Dashed __ __ __ __ __
 72
65
 73
2
 40
0.75
 49
0.5
 49
-0.25
  0
LTYPE
  5
43B
  2
DOTTED
 70
0
  3
Dotted .  .  .  .
 72
65
 73
2
 40
0.2
 49
0.0
 49
-0.2
  0
ENDTAB
  0
TABLE
  2
STYLE
  70
4
  0
STYLE
  2
KICAD
  70
0
  40
0
  41
1
  42
1
  50
0
  71
0
  3
isocp.shx
  0
STYLE
  2
KICADB
  70
0
  40
0
  41
1
  42
1
  50
0
  71
0
  3
isocp.shx
  0
STYLE
  2
KICADI
  70
0
  40
0
  41
1
  42
1
  50
15
  71
0
  3
isocp.shx
  0
STYLE
  2
KICADBI
  70
0
  40
0
  41
1
  42
1
  50
15
  71
0
  3
isocp.shx
  0
ENDTAB
  0
TABLE
  2
LAYER
  70
1
  0
LAYER
  2
BLACK
  70
0
  62
7
  6
CONTINUOUS
  0
ENDTAB
  0
ENDSEC
  0
SECTION
  2
ENTITIES
0
LINE
8
BLACK
6
CONTINUOUS
10
149.6782680000000028
20
-104.6676119999999912
11
149.7107110000000034
21
-104.6892890000000023
0
LINE
8
BLACK
6
CONTINUOUS
10
149.7107110000000034
20
-104.6892890000000023
11
149.7323879999999861
21
-104.7217319999999887
0
LINE
8
BLACK
6
CONTINUOUS
10
149.7323879999999861
20
-104.7217319999999887
11
149.7399999999999807
21
-104.7599999999999909
0
LINE
8
BLACK
6
CONTINUOUS
10
149.7399999999999807
20
-104.7599999999999909
11
149.7399999999999807
21
-109.5599999999999881
0
LINE
8
BLACK
6
CONTINUOUS
10
149.7399999999999807
20
-109.5599999999999881
11
149.7323879999999861
21
-109.5982679999999903
0
LINE
8
BLACK
6
CONTINUOUS
10
149.7323879999999861
20
-109.5982679999999903
11
149.7107110000000034
21
-109.6307109999999909
0
LINE
8
BLACK
6
CONTINUOUS
10
149.7107110000000034
20
-109.6307109999999909
11
149.6782680000000028
21
-109.652388000000002
0
LINE
8
BLACK
6
CONTINUOUS
10
149.6782680000000028
20
-109.652388000000002
11
149.6399999999999864
21
-109.6599999999999966
0
LINE
8
BLACK
6
CONTINUOUS
10
149.6399999999999864
20
-109.6599999999999966
11
149.4399999999999977
21
-109.6599999999999966
0
LINE
8
BLACK
6
CONTINUOUS
10
149.4399999999999977
20
-109.6599999999999966
11
149.4017319999999813
21
-109.652388000000002
0
LINE
8
BLACK
6
CONTINUOUS
10
149.4017319999999813
20
-109.652388000000002
11
149.3692889999999807
21
-109.6307109999999909
0
LINE
8
BLACK
6
CONTINUOUS
10
149.3692889999999807
20
-109.6307109999999909
11
149.347611999999998
21
-109.5982679999999903
0
LINE
8
BLACK
6
CONTINUOUS
10
149.347611999999998
20
-109.5982679999999903
11
149.3400000000000034
21
-109.5599999999999881
0
LINE
8
BLACK
6
CONTINUOUS
10
149.3400000000000034
20
-109.5599999999999881
11
149.3400000000000034
21
-104.7599999999999909
0
LINE
8
BLACK
6
CONTINUOUS
10
149.3400000000000034
20
-104.7599999999999909
11
149.347611999999998
21
-104.7217319999999887
0
LINE
8
BLACK
6
CONTINUOUS
10
149.347611999999998
20
-104.7217319999999887
11
149.3692889999999807
21
-104.6892890000000023
0
LINE
8
BLACK
6
CONTINUOUS
10
149.3692889999999807
20
-104.6892890000000023
11
149.4017319999999813
21
-104.6676119999999912
0
LINE
8
BLACK
6
CONTINUOUS
10
149.4017319999999813
20
-104.6676119999999912
11
149.4399999999999977
21
-104.6599999999999966
0
LINE
8
BLACK
6
CONTINUOUS
10
149.4399999999999977
20
-104.6599999999999966
11
149.6399999999999864
21
-104.6599999999999966
0
LINE
8
BLACK
6
CONTINUOUS
10
149.6399999999999864
20
-104.6599999999999966
11
149.6782680000000028
21
-104.6676119999999912
0
LINE
8
BLACK
6
CONTINUOUS
10
150.4782679999999857
20
-104.6676119999999912
11
150.5107109999999864
21
-104.6892890000000023
0
LINE
8
BLACK
6
CONTINUOUS
10
150.5107109999999864
20
-104.6892890000000023
11
150.5323879999999974
21
-104.7217319999999887
0
LINE
8
BLACK
6
CONTINUOUS
10
150.5323879999999974
20
-104.7217319999999887
11
150.539999999999992
21
-104.7599999999999909
0
LINE
8
BLACK
6
CONTINUOUS
10
150.539999999999992
20
-104.7599999999999909
11
150.539999999999992
21
-109.5599999999999881
0
LINE
8
BLACK
6
CONTINUOUS
10
150.539999999999992
20
-109.5599999999999881
11
150.5323879999999974
21
-109.5982679999999903
0
LINE
8
BLACK
6
CONTINUOUS
10
150.5323879999999974
20
-109.5982679999999903
11
150.5107109999999864
21
-109.6307109999999909
0
LINE
8
BLACK
6
CONTINUOUS
10
150.5107109999999864
20
-109.6307109999999909
11
150.4782679999999857
21
-109.652388000000002
0
LINE
8
BLACK
6
CONTINUOUS
10
150.4782679999999857
20
-109.652388000000002
11
150.4399999999999977
21
-109.6599999999999966
0
LINE
8
BLACK
6
CONTINUOUS
10
150.4399999999999977
20
-109.6599999999999966
11
150.2399999999999807
21
-109.6599999999999966
0
LINE
8
BLACK
6
CONTINUOUS
10
150.2399999999999807
20
-109.6599999999999966
11
150.2017319999999927
21
-109.652388000000002
0
LINE
8
BLACK
6
CONTINUOUS
10
150.2017319999999927
20
-109.652388000000002
11
150.169288999999992
21
-109.6307109999999909
0
LINE
8
BLACK
6
CONTINUOUS
10
150.169288999999992
20
-109.6307109999999909
11
150.147611999999981
21
-109.5982679999999903
0
LINE
8
BLACK
6
CONTINUOUS
10
150.147611999999981
20
-109.5982679999999903
11
150.1399999999999864
21
-109.5599999999999881
0
LINE
8
BLACK
6
CONTINUOUS
10
150.1399999999999864
20
-109.5599999999999881
11
150.1399999999999864
21
-104.7599999999999909
0
LINE
8
BLACK
6
CONTINUOUS
10
150.1399999999999864
20
-104.7599999999999909
11
150.147611999999981
21
-104.7217319999999887
0
LINE
8
BLACK
6
CONTINUOUS
10
150.147611999999981
20
-104.7217319999999887
11
150.169288999999992
21
-104.6892890000000023
0
LINE
8
BLACK
6
CONTINUOUS
10
150.169288999999992
20
-104.6892890000000023
11
150.2017319999999927
21
-104.6676119999999912
0
LINE
8
BLACK
6
CONTINUOUS
10
150.2017319999999927
20
-104.6676119999999912
11
150.2399999999999807
21
-104.6599999999999966
0
LINE
8
BLACK
6
CONTINUOUS
10
150.2399999999999807
20
-104.6599999999999966
11
150.4399999999999977
21
-104.6599999999999966
0
LINE
8
BLACK
6
CONTINUOUS
10
150.4399999999999977
20
-104.6599999999999966
11
150.4782679999999857
21
-104.6676119999999912
0
LINE
8
BLACK
6
CONTINUOUS
10
151.2782679999999971
20
-104.6676119999999912
11
151.3107109999999977
21
-104.6892890000000023
0
LINE
8
BLACK
6
CONTINUOUS
10
151.3107109999999977
20
-104.6892890000000023
11
151.3323879999999804
21
-104.7217319999999887
0
LINE
8
BLACK
6
CONTINUOUS
10
151.3323879999999804
20
-104.7217319999999887
11
151.3400000000000034
21
-104.7599999999999909
0
LINE
8
BLACK
6
CONTINUOUS
10
151.3400000000000034
20
-104.7599999999999909
11
151.3400000000000034
21
-109.5599999999999881
0
LINE
8
BLACK
6
CONTINUOUS
10
151.3400000000000034
20
-109.5599999999999881
11
151.3323879999999804
21
-109.5982679999999903
0
LINE
8
BLACK
6
CONTINUOUS
10
151.3323879999999804
20
-109.5982679999999903
11
151.3107109999999977
21
-109.6307109999999909
0
LINE
8
BLACK
6
CONTINUOUS
10
151.3107109999999977
20
-109.6307109999999909
11
151.2782679999999971
21
-109.652388000000002
0
LINE
8
BLACK
6
CONTINUOUS
10
151.2782679999999971
20
-109.652388000000002
11
151.2399999999999807
21
-109.6599999999999966
0
LINE
8
BLACK
6
CONTINUOUS
10
151.2399999999999807
20
-109.6599999999999966
11
151.039999999999992
21
-109.6599999999999966
0
LINE
8
BLACK
6
CONTINUOUS
10
151.039999999999992
20
-109.6599999999999966
11
151.0017320000000041
21
-109.652388000000002
0
LINE
8
BLACK
6
CONTINUOUS
10
151.0017320000000041
20
-109.652388000000002
11
150.9692890000000034
21
-109.6307109999999909
0
LINE
8
BLACK
6
CONTINUOUS
10
150.9692890000000034
20
-109.6307109999999909
11
150.9476119999999923
21
-109.5982679999999903
0
LINE
8
BLACK
6
CONTINUOUS
10
150.9476119999999923
20
-109.5982679999999903
11
150.9399999999999977
21
-109.5599999999999881
0
LINE
8
BLACK
6
CONTINUOUS
10
150.9399999999999977
20
-109.5599999999999881
11
150.9399999999999977
21
-104.7599999999999909
0
LINE
8
BLACK
6
CONTINUOUS
10
150.9399999999999977
20
-104.7599999999999909
11
150.9476119999999923
21
-104.7217319999999887
0
LINE
8
BLACK
6
CONTINUOUS
10
150.9476119999999923
20
-104.7217319999999887
11
150.9692890000000034
21
-104.6892890000000023
0
LINE
8
BLACK
6
CONTINUOUS
10
150.9692890000000034
20
-104.6892890000000023
11
151.0017320000000041
21
-104.6676119999999912
0
LINE
8
BLACK
6
CONTINUOUS
10
151.0017320000000041
20
-104.6676119999999912
11
151.039999999999992
21
-104.6599999999999966
0
LINE
8
BLACK
6
CONTINUOUS
10
151.039999999999992
20
-104.6599999999999966
11
151.2399999999999807
21
-104.6599999999999966
0
LINE
8
BLACK
6
CONTINUOUS
10
151.2399999999999807
20
-104.6599999999999966
11
151.2782679999999971
21
-104.6676119999999912
0
LINE
8
BLACK
6
CONTINUOUS
10
152.07826799999998
20
-104.6676119999999912
11
152.1107109999999807
21
-104.6892890000000023
0
LINE
8
BLACK
6
CONTINUOUS
10
152.1107109999999807
20
-104.6892890000000023
11
152.1323879999999917
21
-104.7217319999999887
0
LINE
8
BLACK
6
CONTINUOUS
10
152.1323879999999917
20
-104.7217319999999887
11
152.1399999999999864
21
-104.7599999999999909
0
LINE
8
BLACK
6
CONTINUOUS
10
152.1399999999999864
20
-104.7599999999999909
11
152.1399999999999864
21
-109.5599999999999881
0
LINE
8
BLACK
6
CONTINUOUS
10
152.1399999999999864
20
-109.5599999999999881
11
152.1323879999999917
21
-109.5982679999999903
0
LINE
8
BLACK
6
CONTINUOUS
10
152.1323879999999917
20
-109.5982679999999903
11
152.1107109999999807
21
-109.6307109999999909
0
LINE
8
BLACK
6
CONTINUOUS
10
152.1107109999999807
20
-109.6307109999999909
11
152.07826799999998
21
-109.652388000000002
0
LINE
8
BLACK
6
CONTINUOUS
10
152.07826799999998
20
-109.652388000000002
11
152.039999999999992
21
-109.6599999999999966
0
LINE
8
BLACK
6
CONTINUOUS
10
152.039999999999992
20
-109.6599999999999966
11
151.8400000000000034
21
-109.6599999999999966
0
LINE
8
BLACK
6
CONTINUOUS
10
151.8400000000000034
20
-109.6599999999999966
11
151.801731999999987
21
-109.652388000000002
0
LINE
8
BLACK
6
CONTINUOUS
10
151.801731999999987
20
-109.652388000000002
11
151.7692889999999863
21
-109.6307109999999909
0
LINE
8
BLACK
6
CONTINUOUS
10
151.7692889999999863
20
-109.6307109999999909
11
151.7476120000000037
21
-109.5982679999999903
0
LINE
8
BLACK
6
CONTINUOUS
10
151.7476120000000037
20
-109.5982679999999903
11
151.7399999999999807
21
-109.5599999999999881
0
LINE
8
BLACK
6
CONTINUOUS
10
151.7399999999999807
20
-109.5599999999999881
11
151.7399999999999807
21
-104.7599999999999909
0
LINE
8
BLACK
6
CONTINUOUS
10
151.7399999999999807
20
-104.7599999999999909
11
151.7476120000000037
21
-104.7217319999999887
0
LINE
8
BLACK
6
CONTINUOUS
10
151.7476120000000037
20
-104.7217319999999887
11
151.7692889999999863
21
-104.6892890000000023
0
LINE
8
BLACK
6
CONTINUOUS
10
151.7692889999999863
20
-104.6892890000000023
11
151.801731999999987
21
-104.6676119999999912
0
LINE
8
BLACK
6
CONTINUOUS
10
151.801731999999987
20
-104.6676119999999912
11
151.8400000000000034
21
-104.6599999999999966
0
LINE
8
BLACK
6
CONTINUOUS
10
151.8400000000000034
20
-104.6599999999999966
11
152.039999999999992
21
-104.6599999999999966
0
LINE
8
BLACK
6
CONTINUOUS
10
152.039999999999992
20
-104.6599999999999966
11
152.07826799999998
21
-104.6676119999999912
0
LINE
8
BLACK
6
CONTINUOUS
10
152.8782679999999914
20
-104.6676119999999912
11
152.9107109999999921
21
-104.6892890000000023
0
LINE
8
BLACK
6
CONTINUOUS
10
152.9107109999999921
20
-104.6892890000000023
11
152.9323880000000031
21
-104.7217319999999887
0
LINE
8
BLACK
6
CONTINUOUS
10
152.9323880000000031
20
-104.7217319999999887
11
152.9399999999999977
21
-104.7599999999999909
0
LINE
8
BLACK
6
CONTINUOUS
10
152.9399999999999977
20
-104.7599999999999909
11
152.9399999999999977
21
-109.5599999999999881
0
LINE
8
BLACK
6
CONTINUOUS
10
152.9399999999999977
20
-109.5599999999999881
11
152.9323880000000031
21
-109.5982679999999903
0
LINE
8
BLACK
6
CONTINUOUS
10
152.9323880000000031
20
-109.5982679999999903
11
152.9107109999999921
21
-109.6307109999999909
0
LINE
8
BLACK
6
CONTINUOUS
10
152.9107109999999921
20
-109.6307109999999909
11
152.8782679999999914
21
-109.652388000000002
0
LINE
8
BLACK
6
CONTINUOUS
10
152.8782679999999914
20
-109.652388000000002
11
152.8400000000000034
21
-109.6599999999999966
0
LINE
8
BLACK
6
CONTINUOUS
10
152.8400000000000034
20
-109.6599999999999966
11
152.6399999999999864
21
-109.6599999999999966
0
LINE
8
BLACK
6
CONTINUOUS
10
152.6399999999999864
20
-109.6599999999999966
11
152.6017319999999984
21
-109.652388000000002
0
LINE
8
BLACK
6
CONTINUOUS
10
152.6017319999999984
20
-109.652388000000002
11
152.5692889999999977
21
-109.6307109999999909
0
LINE
8
BLACK
6
CONTINUOUS
10
152.5692889999999977
20
-109.6307109999999909
11
152.5476119999999867
21
-109.5982679999999903
0
LINE
8
BLACK
6
CONTINUOUS
10
152.5476119999999867
20
-109.5982679999999903
11
152.539999999999992
21
-109.5599999999999881
0
LINE
8
BLACK
6
CONTINUOUS
10
152.539999999999992
20
-109.5599999999999881
11
152.539999999999992
21
-104.7599999999999909
0
LINE
8
BLACK
6
CONTINUOUS
10
152.539999999999992
20
-104.7599999999999909
11
152.5476119999999867
21
-104.7217319999999887
0
LINE
8
BLACK
6
CONTINUOUS
10
152.5476119999999867
20
-104.7217319999999887
11
152.5692889999999977
21
-104.6892890000000023
0
LINE
8
BLACK
6
CONTINUOUS
10
152.5692889999999977
20
-104.6892890000000023
11
152.6017319999999984
21
-104.6676119999999912
0
LINE
8
BLACK
6
CONTINUOUS
10
152.6017319999999984
20
-104.6676119999999912
11
152.6399999999999864
21
-104.6599999999999966
0
LINE
8
BLACK
6
CONTINUOUS
10
152.6399999999999864
20
-104.6599999999999966
11
152.8400000000000034
21
-104.6599999999999966
0
LINE
8
BLACK
6
CONTINUOUS
10
152.8400000000000034
20
-104.6599999999999966
11
152.8782679999999914
21
-104.6676119999999912
0
LINE
8
BLACK
6
CONTINUOUS
10
153.6782680000000028
20
-104.6676119999999912
11
153.7107110000000034
21
-104.6892890000000023
0
LINE
8
BLACK
6
CONTINUOUS
10
153.7107110000000034
20
-104.6892890000000023
11
153.7323879999999861
21
-104.7217319999999887
0
LINE
8
BLACK
6
CONTINUOUS
10
153.7323879999999861
20
-104.7217319999999887
11
153.7399999999999807
21
-104.7599999999999909
0
LINE
8
BLACK
6
CONTINUOUS
10
153.7399999999999807
20
-104.7599999999999909
11
153.7399999999999807
21
-109.5599999999999881
0
LINE
8
BLACK
6
CONTINUOUS
10
153.7399999999999807
20
-109.5599999999999881
11
153.7323879999999861
21
-109.5982679999999903
0
LINE
8
BLACK
6
CONTINUOUS
10
153.7323879999999861
20
-109.5982679999999903
11
153.7107110000000034
21
-109.6307109999999909
0
LINE
8
BLACK
6
CONTINUOUS
10
153.7107110000000034
20
-109.6307109999999909
11
153.6782680000000028
21
-109.652388000000002
0
LINE
8
BLACK
6
CONTINUOUS
10
153.6782680000000028
20
-109.652388000000002
11
153.6399999999999864
21
-109.6599999999999966
0
LINE
8
BLACK
6
CONTINUOUS
10
153.6399999999999864
20
-109.6599999999999966
11
153.4399999999999977
21
-109.6599999999999966
0
LINE
8
BLACK
6
CONTINUOUS
10
153.4399999999999977
20
-109.6599999999999966
11
153.4017319999999813
21
-109.652388000000002
0
LINE
8
BLACK
6
CONTINUOUS
10
153.4017319999999813
20
-109.652388000000002
11
153.3692889999999807
21
-109.6307109999999909
0
LINE
8
BLACK
6
CONTINUOUS
10
153.3692889999999807
20
-109.6307109999999909
11
153.347611999999998
21
-109.5982679999999903
0
LINE
8
BLACK
6
CONTINUOUS
10
153.347611999999998
20
-109.5982679999999903
11
153.3400000000000034
21
-109.5599999999999881
0
LINE
8
BLACK
6
CONTINUOUS
10
153.3400000000000034
20
-109.5599999999999881
11
153.3400000000000034
21
-104.7599999999999909
0
LINE
8
BLACK
6
CONTINUOUS
10
153.3400000000000034
20
-104.7599999999999909
11
153.347611999999998
21
-104.7217319999999887
0
LINE
8
BLACK
6
CONTINUOUS
10
153.347611999999998
20
-104.7217319999999887
11
153.3692889999999807
21
-104.6892890000000023
0
LINE
8
BLACK
6
CONTINUOUS
10
153.3692889999999807
20
-104.6892890000000023
11
153.4017319999999813
21
-104.6676119999999912
0
LINE
8
BLACK
6
CONTINUOUS
10
153.4017319999999813
20
-104.6676119999999912
11
153.4399999999999977
21
-104.6599999999999966
0
LINE
8
BLACK
6
CONTINUOUS
10
153.4399999999999977
20
-104.6599999999999966
11
153.6399999999999864
21
-104.6599999999999966
0
LINE
8
BLACK
6
CONTINUOUS
10
153.6399999999999864
20
-104.6599999999999966
11
153.6782680000000028
21
-104.6676119999999912
0
LINE
8
BLACK
6
CONTINUOUS
10
154.4782679999999857
20
-104.6676119999999912
11
154.5107109999999864
21
-104.6892890000000023
0
LINE
8
BLACK
6
CONTINUOUS
10
154.5107109999999864
20
-104.6892890000000023
11
154.5323879999999974
21
-104.7217319999999887
0
LINE
8
BLACK
6
CONTINUOUS
10
154.5323879999999974
20
-104.7217319999999887
11
154.539999999999992
21
-104.7599999999999909
0
LINE
8
BLACK
6
CONTINUOUS
10
154.539999999999992
20
-104.7599999999999909
11
154.539999999999992
21
-109.5599999999999881
0
LINE
8
BLACK
6
CONTINUOUS
10
154.539999999999992
20
-109.5599999999999881
11
154.5323879999999974
21
-109.5982679999999903
0
LINE
8
BLACK
6
CONTINUOUS
10
154.5323879999999974
20
-109.5982679999999903
11
154.5107109999999864
21
-109.6307109999999909
0
LINE
8
BLACK
6
CONTINUOUS
10
154.5107109999999864
20
-109.6307109999999909
11
154.4782679999999857
21
-109.652388000000002
0
LINE
8
BLACK
6
CONTINUOUS
10
154.4782679999999857
20
-109.652388000000002
11
154.4399999999999977
21
-109.6599999999999966
0
LINE
8
BLACK
6
CONTINUOUS
10
154.4399999999999977
20
-109.6599999999999966
11
154.2399999999999807
21
-109.6599999999999966
0
LINE
8
BLACK
6
CONTINUOUS
10
154.2399999999999807
20
-109.6599999999999966
11
154.2017319999999927
21
-109.652388000000002
0
LINE
8
BLACK
6
CONTINUOUS
10
154.2017319999999927
20
-109.652388000000002
11
154.169288999999992
21
-109.6307109999999909
0
LINE
8
BLACK
6
CONTINUOUS
10
154.169288999999992
20
-109.6307109999999909
11
154.147611999999981
21
-109.5982679999999903
0
LINE
8
BLACK
6
CONTINUOUS
10
154.147611999999981
20
-109.5982679999999903
11
154.1399999999999864
21
-109.5599999999999881
0
LINE
8
BLACK
6
CONTINUOUS
10
154.1399999999999864
20
-109.5599999999999881
11
154.1399999999999864
21
-104.7599999999999909
0
LINE
8
BLACK
6
CONTINUOUS
10
154.1399999999999864
20
-104.7599999999999909
11
154.147611999999981
21
-104.7217319999999887
0
LINE
8
BLACK
6
CONTINUOUS
10
154.147611999999981
20
-104.7217319999999887
11
154.169288999999992
21
-104.6892890000000023
0
LINE
8
BLACK
6
CONTINUOUS
10
154.169288999999992
20
-104.6892890000000023
11
154.2017319999999927
21
-104.6676119999999912
0
LINE
8
BLACK
6
CONTINUOUS
10
154.2017319999999927
20
-104.6676119999999912
11
154.2399999999999807
21
-104.6599999999999966
0
LINE
8
BLACK
6
CONTINUOUS
10
154.2399999999999807
20
-104.6599999999999966
11
154.4399999999999977
21
-104.6599999999999966
0
LINE
8
BLACK
6
CONTINUOUS
10
154.4399999999999977
20
-104.6599999999999966
11
154.4782679999999857
21
-104.6676119999999912
0
LINE
8
BLACK
6
CONTINUOUS
10
155.2782679999999971
20
-104.6676119999999912
11
155.3107109999999977
21
-104.6892890000000023
0
LINE
8
BLACK
6
CONTINUOUS
10
155.3107109999999977
20
-104.6892890000000023
11
155.3323879999999804
21
-104.7217319999999887
0
LINE
8
BLACK
6
CONTINUOUS
10
155.3323879999999804
20
-104.7217319999999887
11
155.3400000000000034
21
-104.7599999999999909
0
LINE
8
BLACK
6
CONTINUOUS
10
155.3400000000000034
20
-104.7599999999999909
11
155.3400000000000034
21
-109.5599999999999881
0
LINE
8
BLACK
6
CONTINUOUS
10
155.3400000000000034
20
-109.5599999999999881
11
155.3323879999999804
21
-109.5982679999999903
0
LINE
8
BLACK
6
CONTINUOUS
10
155.3323879999999804
20
-109.5982679999999903
11
155.3107109999999977
21
-109.6307109999999909
0
LINE
8
BLACK
6
CONTINUOUS
10
155.3107109999999977
20
-109.6307109999999909
11
155.2782679999999971
21
-109.652388000000002
0
LINE
8
BLACK
6
CONTINUOUS
10
155.2782679999999971
20
-109.652388000000002
11
155.2399999999999807
21
-109.6599999999999966
0
LINE
8
BLACK
6
CONTINUOUS
10
155.2399999999999807
20
-109.6599999999999966
11
155.039999999999992
21
-109.6599999999999966
0
LINE
8
BLACK
6
CONTINUOUS
10
155.039999999999992
20
-109.6599999999999966
11
155.0017320000000041
21
-109.652388000000002
0
LINE
8
BLACK
6
CONTINUOUS
10
155.0017320000000041
20
-109.652388000000002
11
154.9692890000000034
21
-109.6307109999999909
0
LINE
8
BLACK
6
CONTINUOUS
10
154.9692890000000034
20
-109.6307109999999909
11
154.9476119999999923
21
-109.5982679999999903
0
LINE
8
BLACK
6
CONTINUOUS
10
154.9476119999999923
20
-109.5982679999999903
11
154.9399999999999977
21
-109.5599999999999881
0
LINE
8
BLACK
6
CONTINUOUS
10
154.9399999999999977
20
-109.5599999999999881
11
154.9399999999999977
21
-104.7599999999999909
0
LINE
8
BLACK
6
CONTINUOUS
10
154.9399999999999977
20
-104.7599999999999909
11
154.9476119999999923
21
-104.7217319999999887
0
LINE
8
BLACK
6
CONTINUOUS
10
154.9476119999999923
20
-104.7217319999999887
11
154.9692890000000034
21
-104.6892890000000023
0
LINE
8
BLACK
6
CONTINUOUS
10
154.9692890000000034
20
-104.6892890000000023
11
155.0017320000000041
21
-104.6676119999999912
0
LINE
8
BLACK
6
CONTINUOUS
10
155.0017320000000041
20
-104.6676119999999912
11
155.039999999999992
21
-104.6599999999999966
0
LINE
8
BLACK
6
CONTINUOUS
10
155.039999999999992
20
-104.6599999999999966
11
155.2399999999999807
21
-104.6599999999999966
0
LINE
8
BLACK
6
CONTINUOUS
10
155.2399999999999807
20
-104.6599999999999966
11
155.2782679999999971
21
-104.6676119999999912
0
LINE
8
BLACK
6
CONTINUOUS
10
156.07826799999998
20
-104.6676119999999912
11
156.1107109999999807
21
-104.6892890000000023
0
LINE
8
BLACK
6
CONTINUOUS
10
156.1107109999999807
20
-104.6892890000000023
11
156.1323879999999917
21
-104.7217319999999887
0
LINE
8
BLACK
6
CONTINUOUS
10
156.1323879999999917
20
-104.7217319999999887
11
156.1399999999999864
21
-104.7599999999999909
0
LINE
8
BLACK
6
CONTINUOUS
10
156.1399999999999864
20
-104.7599999999999909
11
156.1399999999999864
21
-109.5599999999999881
0
LINE
8
BLACK
6
CONTINUOUS
10
156.1399999999999864
20
-109.5599999999999881
11
156.1323879999999917
21
-109.5982679999999903
0
LINE
8
BLACK
6
CONTINUOUS
10
156.1323879999999917
20
-109.5982679999999903
11
156.1107109999999807
21
-109.6307109999999909
0
LINE
8
BLACK
6
CONTINUOUS
10
156.1107109999999807
20
-109.6307109999999909
11
156.07826799999998
21
-109.652388000000002
0
LINE
8
BLACK
6
CONTINUOUS
10
156.07826799999998
20
-109.652388000000002
11
156.039999999999992
21
-109.6599999999999966
0
LINE
8
BLACK
6
CONTINUOUS
10
156.039999999999992
20
-109.6599999999999966
11
155.8400000000000034
21
-109.6599999999999966
0
LINE
8
BLACK
6
CONTINUOUS
10
155.8400000000000034
20
-109.6599999999999966
11
155.801731999999987
21
-109.652388000000002
0
LINE
8
BLACK
6
CONTINUOUS
10
155.801731999999987
20
-109.652388000000002
11
155.7692889999999863
21
-109.6307109999999909
0
LINE
8
BLACK
6
CONTINUOUS
10
155.7692889999999863
20
-109.6307109999999909
11
155.7476120000000037
21
-109.5982679999999903
0
LINE
8
BLACK
6
CONTINUOUS
10
155.7476120000000037
20
-109.5982679999999903
11
155.7399999999999807
21
-109.5599999999999881
0
LINE
8
BLACK
6
CONTINUOUS
10
155.7399999999999807
20
-109.5599999999999881
11
155.7399999999999807
21
-104.7599999999999909
0
LINE
8
BLACK
6
CONTINUOUS
10
155.7399999999999807
20
-104.7599999999999909
11
155.7476120000000037
21
-104.7217319999999887
0
LINE
8
BLACK
6
CONTINUOUS
10
155.7476120000000037
20
-104.7217319999999887
11
155.7692889999999863
21
-104.6892890000000023
0
LINE
8
BLACK
6
CONTINUOUS
10
155.7692889999999863
20
-104.6892890000000023
11
155.801731999999987
21
-104.6676119999999912
0
LINE
8
BLACK
6
CONTINUOUS
10
155.801731999999987
20
-104.6676119999999912
11
155.8400000000000034
21
-104.6599999999999966
0
LINE
8
BLACK
6
CONTINUOUS
10
155.8400000000000034
20
-104.6599999999999966
11
156.039999999999992
21
-104.6599999999999966
0
LINE
8
BLACK
6
CONTINUOUS
10
156.039999999999992
20
-104.6599999999999966
11
156.07826799999998
21
-104.6676119999999912
0
LINE
8
BLACK
6
CONTINUOUS
10
156.8782679999999914
20
-104.6676119999999912
11
156.9107109999999921
21
-104.6892890000000023
0
LINE
8
BLACK
6
CONTINUOUS
10
156.9107109999999921
20
-104.6892890000000023
11
156.9323880000000031
21
-104.7217319999999887
0
LINE
8
BLACK
6
CONTINUOUS
10
156.9323880000000031
20
-104.7217319999999887
11
156.9399999999999977
21
-104.7599999999999909
0
LINE
8
BLACK
6
CONTINUOUS
10
156.9399999999999977
20
-104.7599999999999909
11
156.9399999999999977
21
-109.5599999999999881
0
LINE
8
BLACK
6
CONTINUOUS
10
156.9399999999999977
20
-109.5599999999999881
11
156.9323880000000031
21
-109.5982679999999903
0
LINE
8
BLACK
6
CONTINUOUS
10
156.9323880000000031
20
-109.5982679999999903
11
156.9107109999999921
21
-109.6307109999999909
0
LINE
8
BLACK
6
CONTINUOUS
10
156.9107109999999921
20
-109.6307109999999909
11
156.8782679999999914
21
-109.652388000000002
0
LINE
8
BLACK
6
CONTINUOUS
10
156.8782679999999914
20
-109.652388000000002
11
156.8400000000000034
21
-109.6599999999999966
0
LINE
8
BLACK
6
CONTINUOUS
10
156.8400000000000034
20
-109.6599999999999966
11
156.6399999999999864
21
-109.6599999999999966
0
LINE
8
BLACK
6
CONTINUOUS
10
156.6399999999999864
20
-109.6599999999999966
11
156.6017319999999984
21
-109.652388000000002
0
LINE
8
BLACK
6
CONTINUOUS
10
156.6017319999999984
20
-109.652388000000002
11
156.5692889999999977
21
-109.6307109999999909
0
LINE
8
BLACK
6
CONTINUOUS
10
156.5692889999999977
20
-109.6307109999999909
11
156.5476119999999867
21
-109.5982679999999903
0
LINE
8
BLACK
6
CONTINUOUS
10
156.5476119999999867
20
-109.5982679999999903
11
156.539999999999992
21
-109.5599999999999881
0
LINE
8
BLACK
6
CONTINUOUS
10
156.539999999999992
20
-109.5599999999999881
11
156.539999999999992
21
-104.7599999999999909
0
LINE
8
BLACK
6
CONTINUOUS
10
156.539999999999992
20
-104.7599999999999909
11
156.5476119999999867
21
-104.7217319999999887
0
LINE
8
BLACK
6
CONTINUOUS
10
156.5476119999999867
20
-104.7217319999999887
11
156.5692889999999977
21
-104.6892890000000023
0
LINE
8
BLACK
6
CONTINUOUS
10
156.5692889999999977
20
-104.6892890000000023
11
156.6017319999999984
21
-104.6676119999999912
0
LINE
8
BLACK
6
CONTINUOUS
10
156.6017319999999984
20
-104.6676119999999912
11
156.6399999999999864
21
-104.6599999999999966
0
LINE
8
BLACK
6
CONTINUOUS
10
156.6399999999999864
20
-104.6599999999999966
11
156.8400000000000034
21
-104.6599999999999966
0
LINE
8
BLACK
6
CONTINUOUS
10
156.8400000000000034
20
-104.6599999999999966
11
156.8782679999999914
21
-104.6676119999999912
0
LINE
8
BLACK
6
CONTINUOUS
10
157.6782680000000028
20
-104.6676119999999912
11
157.7107110000000034
21
-104.6892890000000023
0
LINE
8
BLACK
6
CONTINUOUS
10
157.7107110000000034
20
-104.6892890000000023
11
157.7323879999999861
21
-104.7217319999999887
0
LINE
8
BLACK
6
CONTINUOUS
10
157.7323879999999861
20
-104.7217319999999887
11
157.7399999999999807
21
-104.7599999999999909
0
LINE
8
BLACK
6
CONTINUOUS
10
157.7399999999999807
20
-104.7599999999999909
11
157.7399999999999807
21
-109.5599999999999881
0
LINE
8
BLACK
6
CONTINUOUS
10
157.7399999999999807
20
-109.5599999999999881
11
157.7323879999999861
21
-109.5982679999999903
0
LINE
8
BLACK
6
CONTINUOUS
10
157.7323879999999861
20
-109.5982679999999903
11
157.7107110000000034
21
-109.6307109999999909
0
LINE
8
BLACK
6
CONTINUOUS
10
157.7107110000000034
20
-109.6307109999999909
11
157.6782680000000028
21
-109.652388000000002
0
LINE
8
BLACK
6
CONTINUOUS
10
157.6782680000000028
20
-109.652388000000002
11
157.6399999999999864
21
-109.6599999999999966
0
LINE
8
BLACK
6
CONTINUOUS
10
157.6399999999999864
20
-109.6599999999999966
11
157.4399999999999977
21
-109.6599999999999966
0
LINE
8
BLACK
6
CONTINUOUS
10
157.4399999999999977
20
-109.6599999999999966
11
157.4017319999999813
21
-109.652388000000002
0
LINE
8
BLACK
6
CONTINUOUS
10
157.4017319999999813
20
-109.652388000000002
11
157.3692889999999807
21
-109.6307109999999909
0
LINE
8
BLACK
6
CONTINUOUS
10
157.3692889999999807
20
-109.6307109999999909
11
157.347611999999998
21
-109.5982679999999903
0
LINE
8
BLACK
6
CONTINUOUS
10
157.347611999999998
20
-109.5982679999999903
11
157.3400000000000034
21
-109.5599999999999881
0
LINE
8
BLACK
6
CONTINUOUS
10
157.3400000000000034
20
-109.5599999999999881
11
157.3400000000000034
21
-104.7599999999999909
0
LINE
8
BLACK
6
CONTINUOUS
10
157.3400000000000034
20
-104.7599999999999909
11
157.347611999999998
21
-104.7217319999999887
0
LINE
8
BLACK
6
CONTINUOUS
10
157.347611999999998
20
-104.7217319999999887
11
157.3692889999999807
21
-104.6892890000000023
0
LINE
8
BLACK
6
CONTINUOUS
10
157.3692889999999807
20
-104.6892890000000023
11
157.4017319999999813
21
-104.6676119999999912
0
LINE
8
BLACK
6
CONTINUOUS
10
157.4017319999999813
20
-104.6676119999999912
11
157.4399999999999977
21
-104.6599999999999966
0
LINE
8
BLACK
6
CONTINUOUS
10
157.4399999999999977
20
-104.6599999999999966
11
157.6399999999999864
21
-104.6599999999999966
0
LINE
8
BLACK
6
CONTINUOUS
10
157.6399999999999864
20
-104.6599999999999966
11
157.6782680000000028
21
-104.6676119999999912
0
LINE
8
BLACK
6
CONTINUOUS
10
158.4782679999999857
20
-104.6676119999999912
11
158.5107109999999864
21
-104.6892890000000023
0
LINE
8
BLACK
6
CONTINUOUS
10
158.5107109999999864
20
-104.6892890000000023
11
158.5323879999999974
21
-104.7217319999999887
0
LINE
8
BLACK
6
CONTINUOUS
10
158.5323879999999974
20
-104.7217319999999887
11
158.539999999999992
21
-104.7599999999999909
0
LINE
8
BLACK
6
CONTINUOUS
10
158.539999999999992
20
-104.7599999999999909
11
158.539999999999992
21
-109.5599999999999881
0
LINE
8
BLACK
6
CONTINUOUS
10
158.539999999999992
20
-109.5599999999999881
11
158.5323879999999974
21
-109.5982679999999903
0
LINE
8
BLACK
6
CONTINUOUS
10
158.5323879999999974
20
-109.5982679999999903
11
158.5107109999999864
21
-109.6307109999999909
0
LINE
8
BLACK
6
CONTINUOUS
10
158.5107109999999864
20
-109.6307109999999909
11
158.4782679999999857
21
-109.652388000000002
0
LINE
8
BLACK
6
CONTINUOUS
10
158.4782679999999857
20
-109.652388000000002
11
158.4399999999999977
21
-109.6599999999999966
0
LINE
8
BLACK
6
CONTINUOUS
10
158.4399999999999977
20
-109.6599999999999966
11
158.2399999999999807
21
-109.6599999999999966
0
LINE
8
BLACK
6
CONTINUOUS
10
158.2399999999999807
20
-109.6599999999999966
11
158.2017319999999927
21
-109.652388000000002
0
LINE
8
BLACK
6
CONTINUOUS
10
158.2017319999999927
20
-109.652388000000002
11
158.169288999999992
21
-109.6307109999999909
0
LINE
8
BLACK
6
CONTINUOUS
10
158.169288999999992
20
-109.6307109999999909
11
158.147611999999981
21
-109.5982679999999903
0
LINE
8
BLACK
6
CONTINUOUS
10
158.147611999999981
20
-109.5982679999999903
11
158.1399999999999864
21
-109.5599999999999881
0
LINE
8
BLACK
6
CONTINUOUS
10
158.1399999999999864
20
-109.5599999999999881
11
158.1399999999999864
21
-104.7599999999999909
0
LINE
8
BLACK
6
CONTINUOUS
10
158.1399999999999864
20
-104.7599999999999909
11
158.147611999999981
21
-104.7217319999999887
0
LINE
8
BLACK
6
CONTINUOUS
10
158.147611999999981
20
-104.7217319999999887
11
158.169288999999992
21
-104.6892890000000023
0
LINE
8
BLACK
6
CONTINUOUS
10
158.169288999999992
20
-104.6892890000000023
11
158.2017319999999927
21
-104.6676119999999912
0
LINE
8
BLACK
6
CONTINUOUS
10
158.2017319999999927
20
-104.6676119999999912
11
158.2399999999999807
21
-104.6599999999999966
0
LINE
8
BLACK
6
CONTINUOUS
10
158.2399999999999807
20
-104.6599999999999966
11
158.4399999999999977
21
-104.6599999999999966
0
LINE
8
BLACK
6
CONTINUOUS
10
158.4399999999999977
20
-104.6599999999999966
11
158.4782679999999857
21
-104.6676119999999912
  0
ENDSEC
  0
EOF
