%TF.GenerationSoftware,KiCad,Pcbnew,9.0.6*%
%TF.CreationDate,2026-01-17T11:58:25+01:00*%
%TF.ProjectId,peak,7065616b-2e6b-4696-9361-645f70636258,rev?*%
%TF.SameCoordinates,Original*%
%TF.FileFunction,Soldermask,Top*%
%TF.FilePolarity,Negative*%
%FSLAX46Y46*%
G04 Gerber Fmt 4.6, Leading zero omitted, Abs format (unit mm)*
G04 Created by KiCad (PCBNEW 9.0.6) date 2026-01-17 11:58:25*
%MOMM*%
%LPD*%
G01*
G04 APERTURE LIST*
G04 Aperture macros list*
%AMRoundRect*
0 Rectangle with rounded corners*
0 $1 Rounding radius*
0 $2 $3 $4 $5 $6 $7 $8 $9 X,Y pos of 4 corners*
0 Add a 4 corners polygon primitive as box body*
4,1,4,$2,$3,$4,$5,$6,$7,$8,$9,$2,$3,0*
0 Add four circle primitives for the rounded corners*
1,1,$1+$1,$2,$3*
1,1,$1+$1,$4,$5*
1,1,$1+$1,$6,$7*
1,1,$1+$1,$8,$9*
0 Add four rect primitives between the rounded corners*
20,1,$1+$1,$2,$3,$4,$5,0*
20,1,$1+$1,$4,$5,$6,$7,0*
20,1,$1+$1,$6,$7,$8,$9,0*
20,1,$1+$1,$8,$9,$2,$3,0*%
%AMFreePoly0*
4,1,6,0.725000,-0.725000,-0.725000,-0.725000,-0.725000,0.125000,-0.125000,0.725000,0.725000,0.725000,0.725000,-0.725000,0.725000,-0.725000,$1*%
G04 Aperture macros list end*
%ADD10R,2.100000X2.100000*%
%ADD11O,0.200000X0.650000*%
%ADD12O,0.650000X0.200000*%
%ADD13RoundRect,0.200000X-0.200000X-0.275000X0.200000X-0.275000X0.200000X0.275000X-0.200000X0.275000X0*%
%ADD14RoundRect,0.250000X-0.250000X-0.475000X0.250000X-0.475000X0.250000X0.475000X-0.250000X0.475000X0*%
%ADD15RoundRect,0.225000X-0.225000X-0.250000X0.225000X-0.250000X0.225000X0.250000X-0.225000X0.250000X0*%
%ADD16RoundRect,0.135000X-0.135000X-0.185000X0.135000X-0.185000X0.135000X0.185000X-0.135000X0.185000X0*%
%ADD17RoundRect,0.087500X0.087500X-0.250000X0.087500X0.250000X-0.087500X0.250000X-0.087500X-0.250000X0*%
%ADD18RoundRect,0.135000X0.135000X0.185000X-0.135000X0.185000X-0.135000X-0.185000X0.135000X-0.185000X0*%
%ADD19RoundRect,0.250000X-0.300000X-1.600000X0.300000X-1.600000X0.300000X1.600000X-0.300000X1.600000X0*%
%ADD20RoundRect,0.200000X0.275000X-0.200000X0.275000X0.200000X-0.275000X0.200000X-0.275000X-0.200000X0*%
%ADD21RoundRect,0.135000X0.185000X-0.135000X0.185000X0.135000X-0.185000X0.135000X-0.185000X-0.135000X0*%
%ADD22R,3.400000X4.300000*%
%ADD23RoundRect,0.125000X-0.250000X-0.125000X0.250000X-0.125000X0.250000X0.125000X-0.250000X0.125000X0*%
%ADD24R,0.300000X1.000000*%
%ADD25R,0.300000X0.700000*%
%ADD26RoundRect,0.225000X-0.250000X0.225000X-0.250000X-0.225000X0.250000X-0.225000X0.250000X0.225000X0*%
%ADD27RoundRect,0.250000X0.450000X-0.262500X0.450000X0.262500X-0.450000X0.262500X-0.450000X-0.262500X0*%
%ADD28RoundRect,0.250000X0.650000X-0.750000X0.650000X0.750000X-0.650000X0.750000X-0.650000X-0.750000X0*%
%ADD29C,1.000000*%
%ADD30RoundRect,0.225000X0.225000X0.625000X-0.225000X0.625000X-0.225000X-0.625000X0.225000X-0.625000X0*%
%ADD31RoundRect,0.150000X0.150000X0.475000X-0.150000X0.475000X-0.150000X-0.475000X0.150000X-0.475000X0*%
%ADD32RoundRect,0.140000X-0.140000X-0.170000X0.140000X-0.170000X0.140000X0.170000X-0.140000X0.170000X0*%
%ADD33RoundRect,0.200000X-0.275000X0.200000X-0.275000X-0.200000X0.275000X-0.200000X0.275000X0.200000X0*%
%ADD34RoundRect,0.250000X-0.475000X0.250000X-0.475000X-0.250000X0.475000X-0.250000X0.475000X0.250000X0*%
%ADD35RoundRect,0.140000X0.140000X0.170000X-0.140000X0.170000X-0.140000X-0.170000X0.140000X-0.170000X0*%
%ADD36RoundRect,0.250000X0.325000X0.650000X-0.325000X0.650000X-0.325000X-0.650000X0.325000X-0.650000X0*%
%ADD37RoundRect,0.250000X0.475000X-0.250000X0.475000X0.250000X-0.475000X0.250000X-0.475000X-0.250000X0*%
%ADD38RoundRect,0.162500X-0.367500X-0.162500X0.367500X-0.162500X0.367500X0.162500X-0.367500X0.162500X0*%
%ADD39RoundRect,0.225000X0.225000X0.250000X-0.225000X0.250000X-0.225000X-0.250000X0.225000X-0.250000X0*%
%ADD40RoundRect,0.250000X-0.262500X-0.450000X0.262500X-0.450000X0.262500X0.450000X-0.262500X0.450000X0*%
%ADD41RoundRect,0.200000X-0.250000X-0.200000X0.250000X-0.200000X0.250000X0.200000X-0.250000X0.200000X0*%
%ADD42RoundRect,0.250001X0.799999X1.249999X-0.799999X1.249999X-0.799999X-1.249999X0.799999X-1.249999X0*%
%ADD43RoundRect,0.200000X0.200000X0.600000X-0.200000X0.600000X-0.200000X-0.600000X0.200000X-0.600000X0*%
%ADD44RoundRect,0.162500X0.162500X-0.367500X0.162500X0.367500X-0.162500X0.367500X-0.162500X-0.367500X0*%
%ADD45RoundRect,0.200000X0.200000X0.275000X-0.200000X0.275000X-0.200000X-0.275000X0.200000X-0.275000X0*%
%ADD46RoundRect,0.250000X-0.250000X-0.550000X0.250000X-0.550000X0.250000X0.550000X-0.250000X0.550000X0*%
%ADD47RoundRect,0.093750X-0.093750X-0.106250X0.093750X-0.106250X0.093750X0.106250X-0.093750X0.106250X0*%
%ADD48RoundRect,0.250000X0.375000X0.625000X-0.375000X0.625000X-0.375000X-0.625000X0.375000X-0.625000X0*%
%ADD49RoundRect,0.140000X0.170000X-0.140000X0.170000X0.140000X-0.170000X0.140000X-0.170000X-0.140000X0*%
%ADD50RoundRect,0.250000X-0.375000X-1.075000X0.375000X-1.075000X0.375000X1.075000X-0.375000X1.075000X0*%
%ADD51R,0.700000X0.700000*%
%ADD52R,1.450000X1.450000*%
%ADD53FreePoly0,0.000000*%
%ADD54R,0.400000X0.800000*%
%ADD55R,0.800000X0.400000*%
%ADD56RoundRect,0.140000X-0.170000X0.140000X-0.170000X-0.140000X0.170000X-0.140000X0.170000X0.140000X0*%
%ADD57RoundRect,0.200000X0.250000X0.200000X-0.250000X0.200000X-0.250000X-0.200000X0.250000X-0.200000X0*%
%ADD58RoundRect,0.250000X-0.650000X0.325000X-0.650000X-0.325000X0.650000X-0.325000X0.650000X0.325000X0*%
%ADD59R,2.400000X1.550000*%
%ADD60R,0.350000X0.650000*%
%ADD61RoundRect,0.250000X0.300000X0.300000X-0.300000X0.300000X-0.300000X-0.300000X0.300000X-0.300000X0*%
%ADD62RoundRect,0.218750X-0.381250X0.218750X-0.381250X-0.218750X0.381250X-0.218750X0.381250X0.218750X0*%
%ADD63RoundRect,0.250000X0.250000X0.475000X-0.250000X0.475000X-0.250000X-0.475000X0.250000X-0.475000X0*%
%ADD64RoundRect,0.250000X-0.450000X0.262500X-0.450000X-0.262500X0.450000X-0.262500X0.450000X0.262500X0*%
%ADD65RoundRect,0.162500X-0.447500X-0.162500X0.447500X-0.162500X0.447500X0.162500X-0.447500X0.162500X0*%
%ADD66RoundRect,0.250000X0.500000X-0.750000X0.500000X0.750000X-0.500000X0.750000X-0.500000X-0.750000X0*%
%ADD67RoundRect,0.250000X1.650000X-0.750000X1.650000X0.750000X-1.650000X0.750000X-1.650000X-0.750000X0*%
%ADD68RoundRect,0.225000X0.250000X-0.225000X0.250000X0.225000X-0.250000X0.225000X-0.250000X-0.225000X0*%
%ADD69RoundRect,0.150000X-0.512500X-0.150000X0.512500X-0.150000X0.512500X0.150000X-0.512500X0.150000X0*%
%ADD70RoundRect,0.250000X0.550000X-0.250000X0.550000X0.250000X-0.550000X0.250000X-0.550000X-0.250000X0*%
%ADD71RoundRect,0.087500X0.087500X-0.237500X0.087500X0.237500X-0.087500X0.237500X-0.087500X-0.237500X0*%
%ADD72RoundRect,0.135000X-0.185000X0.135000X-0.185000X-0.135000X0.185000X-0.135000X0.185000X0.135000X0*%
%ADD73RoundRect,0.150000X0.150000X-0.512500X0.150000X0.512500X-0.150000X0.512500X-0.150000X-0.512500X0*%
%ADD74RoundRect,0.218750X-0.218750X-0.256250X0.218750X-0.256250X0.218750X0.256250X-0.218750X0.256250X0*%
G04 APERTURE END LIST*
D10*
%TO.C,U1*%
X211503100Y-93900001D03*
X211503100Y-91200001D03*
X211503100Y-88500001D03*
X208803100Y-93900001D03*
X208803100Y-91200001D03*
X208803100Y-88500001D03*
X206103100Y-93900001D03*
X206103100Y-91200001D03*
X206103100Y-88500001D03*
D11*
X204428100Y-86325001D03*
X204778100Y-86325001D03*
X205128100Y-86325001D03*
X205478100Y-86325001D03*
X205828100Y-86325001D03*
X206178100Y-86325001D03*
X206528100Y-86325001D03*
X206878100Y-86325001D03*
X207228100Y-86325001D03*
X207578100Y-86325001D03*
X207928100Y-86325001D03*
X208278100Y-86325001D03*
X208628100Y-86325001D03*
X208978100Y-86325001D03*
X209328100Y-86325001D03*
X209678100Y-86325001D03*
X210028100Y-86325001D03*
X210378100Y-86325001D03*
X210728100Y-86325001D03*
X211078100Y-86325001D03*
X211428100Y-86325001D03*
X211778100Y-86325001D03*
X212128100Y-86325001D03*
X212478100Y-86325001D03*
X212828100Y-86325001D03*
X213178100Y-86325001D03*
D12*
X213678100Y-86825001D03*
X213678100Y-87175001D03*
X213678100Y-87525001D03*
X213678100Y-87875001D03*
X213678100Y-88225001D03*
X213678100Y-88575001D03*
X213678100Y-88925001D03*
X213678100Y-89275001D03*
X213678100Y-89625001D03*
X213678100Y-89975001D03*
X213678100Y-90325001D03*
X213678100Y-90675001D03*
X213678100Y-91025001D03*
X213678100Y-91375001D03*
X213678100Y-91725001D03*
X213678100Y-92075001D03*
X213678100Y-92425001D03*
X213678100Y-92775001D03*
X213678100Y-93125001D03*
X213678100Y-93475001D03*
X213678100Y-93825001D03*
X213678100Y-94175001D03*
X213678100Y-94525001D03*
X213678100Y-94875001D03*
X213678100Y-95225001D03*
X213678100Y-95575001D03*
D11*
X213178100Y-96075001D03*
X212828100Y-96075001D03*
X212478100Y-96075001D03*
X212128100Y-96075001D03*
X211778100Y-96075001D03*
X211428100Y-96075001D03*
X211078100Y-96075001D03*
X210728100Y-96075001D03*
X210378100Y-96075001D03*
X210028100Y-96075001D03*
X209678100Y-96075001D03*
X209328100Y-96075001D03*
X208978100Y-96075001D03*
X208628100Y-96075001D03*
X208278100Y-96075001D03*
X207928100Y-96075001D03*
X207578100Y-96075001D03*
X207228100Y-96075001D03*
X206878100Y-96075001D03*
X206528100Y-96075001D03*
X206178100Y-96075001D03*
X205828100Y-96075001D03*
X205478100Y-96075001D03*
X205128100Y-96075001D03*
X204778100Y-96075001D03*
X204428100Y-96075001D03*
D12*
X203928100Y-95575001D03*
X203928100Y-95225001D03*
X203928100Y-94875001D03*
X203928100Y-94525001D03*
X203928100Y-94175001D03*
X203928100Y-93825001D03*
X203928100Y-93475001D03*
X203928100Y-93125001D03*
X203928100Y-92775001D03*
X203928100Y-92425001D03*
X203928100Y-92075001D03*
X203928100Y-91725001D03*
X203928100Y-91375001D03*
X203928100Y-91025001D03*
X203928100Y-90675001D03*
X203928100Y-90325001D03*
X203928100Y-89975001D03*
X203928100Y-89625001D03*
X203928100Y-89275001D03*
X203928100Y-88925001D03*
X203928100Y-88575001D03*
X203928100Y-88225001D03*
X203928100Y-87875001D03*
X203928100Y-87525001D03*
X203928100Y-87175001D03*
X203928100Y-86825001D03*
%TD*%
D13*
%TO.C,R605*%
X228343100Y-103440001D03*
X226693100Y-103440001D03*
%TD*%
D14*
%TO.C,C208*%
X190553100Y-80800001D03*
X188653100Y-80800001D03*
%TD*%
D15*
%TO.C,C213*%
X228178100Y-78750001D03*
X226628100Y-78750001D03*
%TD*%
D13*
%TO.C,R703*%
X218928100Y-74300001D03*
X217278100Y-74300001D03*
%TD*%
D16*
%TO.C,R16*%
X219853100Y-93400001D03*
X218833100Y-93400001D03*
%TD*%
D17*
%TO.C,U203*%
X224353100Y-77550001D03*
X224853100Y-77550001D03*
X225353100Y-77550001D03*
X225353100Y-78975001D03*
X224853100Y-78975001D03*
X224353100Y-78975001D03*
%TD*%
D13*
%TO.C,R701*%
X218928100Y-77300001D03*
X217278100Y-77300001D03*
%TD*%
D18*
%TO.C,R3*%
X196143100Y-93700001D03*
X197163100Y-93700001D03*
%TD*%
D19*
%TO.C,L202*%
X195178100Y-78025001D03*
X192178100Y-78025001D03*
%TD*%
D20*
%TO.C,R308*%
X229503100Y-126175001D03*
X229503100Y-127825001D03*
%TD*%
D21*
%TO.C,R7*%
X208103100Y-98280001D03*
X208103100Y-99300001D03*
%TD*%
D22*
%TO.C,U2*%
X198853100Y-96995001D03*
D23*
X201553100Y-95090001D03*
X201553100Y-96360001D03*
X201553100Y-97630001D03*
X201553100Y-98900001D03*
X196153100Y-98900001D03*
X196153100Y-97630001D03*
X196153100Y-96360001D03*
X196153100Y-95090001D03*
%TD*%
D18*
%TO.C,R18*%
X215913100Y-96550001D03*
X216933100Y-96550001D03*
%TD*%
D24*
%TO.C,J1*%
X214343100Y-104550000D03*
X203263100Y-104550000D03*
D25*
X213553100Y-101900000D03*
X213053100Y-101900000D03*
X212553100Y-101900000D03*
X212053100Y-101900000D03*
X211553100Y-101900000D03*
X211053100Y-101900000D03*
X210553100Y-101900000D03*
X210053100Y-101900000D03*
X209553100Y-101900000D03*
X209053100Y-101900000D03*
X208553100Y-101900000D03*
X208053100Y-101900000D03*
X207553100Y-101900000D03*
X207053100Y-101900000D03*
X206553100Y-101900000D03*
X206053100Y-101900000D03*
X205553100Y-101900000D03*
X205053100Y-101900000D03*
X204553100Y-101900000D03*
X204053100Y-101900000D03*
%TD*%
D13*
%TO.C,R601*%
X226253100Y-119750001D03*
X224603100Y-119750001D03*
%TD*%
D26*
%TO.C,C219*%
X224328100Y-88365001D03*
X224328100Y-86815001D03*
%TD*%
D27*
%TO.C,R609*%
X190003100Y-102987501D03*
X190003100Y-104812501D03*
%TD*%
D28*
%TO.C,L201*%
X189753100Y-85525001D03*
X189753100Y-90025001D03*
%TD*%
D29*
%TO.C,TP302*%
X202273100Y-118340001D03*
%TD*%
D30*
%TO.C,J4*%
X221903100Y-69175001D03*
X229803100Y-69175001D03*
D31*
X223353100Y-72300001D03*
X224353100Y-72300001D03*
X225353100Y-72300001D03*
X226353100Y-72300001D03*
X227353100Y-72300001D03*
X228353100Y-72300001D03*
%TD*%
D16*
%TO.C,R14*%
X201783100Y-86950001D03*
X200763100Y-86950001D03*
%TD*%
D32*
%TO.C,C17*%
X216883100Y-89550001D03*
X215923100Y-89550001D03*
%TD*%
D21*
%TO.C,R9*%
X210503100Y-98280001D03*
X210503100Y-99300001D03*
%TD*%
D33*
%TO.C,R301*%
X220863100Y-108910001D03*
X220863100Y-107260001D03*
%TD*%
D34*
%TO.C,C210*%
X193028100Y-82925001D03*
X193028100Y-81025001D03*
%TD*%
D35*
%TO.C,C6*%
X200793100Y-88900001D03*
X201753100Y-88900001D03*
%TD*%
%TO.C,C13*%
X200793100Y-92350001D03*
X201753100Y-92350001D03*
%TD*%
%TO.C,C4*%
X200793100Y-86000001D03*
X201753100Y-86000001D03*
%TD*%
D32*
%TO.C,C9*%
X216883100Y-86700001D03*
X215923100Y-86700001D03*
%TD*%
D13*
%TO.C,R602*%
X226253100Y-116750001D03*
X224603100Y-116750001D03*
%TD*%
D29*
%TO.C,TP202*%
X197063100Y-78050001D03*
%TD*%
D20*
%TO.C,R708*%
X212003100Y-81255001D03*
X212003100Y-82905001D03*
%TD*%
D36*
%TO.C,C303*%
X187728100Y-122300001D03*
X190678100Y-122300001D03*
%TD*%
D37*
%TO.C,C607*%
X188053100Y-102950001D03*
X188053100Y-104850001D03*
%TD*%
D38*
%TO.C,D302*%
X227953100Y-126350001D03*
X227953100Y-127300001D03*
X227953100Y-128250001D03*
X225753100Y-128250001D03*
X225753100Y-127300001D03*
X225753100Y-126350001D03*
%TD*%
D39*
%TO.C,C701*%
X198728100Y-73800001D03*
X200278100Y-73800001D03*
%TD*%
D21*
%TO.C,R6*%
X207103100Y-98280001D03*
X207103100Y-99300001D03*
%TD*%
D32*
%TO.C,C10*%
X216883100Y-92400001D03*
X215923100Y-92400001D03*
%TD*%
D33*
%TO.C,R302*%
X222363100Y-108910001D03*
X222363100Y-107260001D03*
%TD*%
D18*
%TO.C,R13*%
X218833100Y-91100001D03*
X219853100Y-91100001D03*
%TD*%
D33*
%TO.C,R303*%
X226773100Y-110840001D03*
X226773100Y-109190001D03*
%TD*%
D13*
%TO.C,R704*%
X218928100Y-72800001D03*
X217278100Y-72800001D03*
%TD*%
D15*
%TO.C,C603*%
X229203100Y-118250001D03*
X227653100Y-118250001D03*
%TD*%
D26*
%TO.C,C608*%
X216628100Y-82855001D03*
X216628100Y-81305001D03*
%TD*%
D40*
%TO.C,R502*%
X225553100Y-97775001D03*
X223728100Y-97775001D03*
%TD*%
D41*
%TO.C,Q601*%
X193453100Y-107450001D03*
X191453100Y-108400001D03*
X191453100Y-106500001D03*
%TD*%
D32*
%TO.C,C22*%
X216883100Y-87650001D03*
X215923100Y-87650001D03*
%TD*%
D20*
%TO.C,R206*%
X223003100Y-76475001D03*
X223003100Y-78125001D03*
%TD*%
D42*
%TO.C,J2*%
X195003100Y-124100001D03*
X205103100Y-124100001D03*
D43*
X197553100Y-127000001D03*
X198803100Y-127000001D03*
X200053100Y-127000001D03*
X201303100Y-127000001D03*
X202553100Y-127000001D03*
%TD*%
D15*
%TO.C,C602*%
X229203100Y-116750001D03*
X227653100Y-116750001D03*
%TD*%
D44*
%TO.C,U602*%
X220563100Y-103485001D03*
X222463100Y-103485001D03*
X222463100Y-105685001D03*
X221513100Y-105685001D03*
X220563100Y-105685001D03*
%TD*%
D41*
%TO.C,DZ601*%
X189853100Y-107450001D03*
X187853100Y-108400001D03*
X187853100Y-106500001D03*
%TD*%
D45*
%TO.C,R611*%
X207998100Y-122300001D03*
X209648100Y-122300001D03*
%TD*%
D33*
%TO.C,R307*%
X228403100Y-123825001D03*
X228403100Y-122175001D03*
%TD*%
D46*
%TO.C,U204*%
X226440600Y-87635001D03*
D47*
X227328100Y-86985001D03*
X227328100Y-87635001D03*
X227328100Y-88285001D03*
X225553100Y-88285001D03*
X225553100Y-87635001D03*
X225553100Y-86985001D03*
%TD*%
D29*
%TO.C,TP204*%
X199153100Y-84870001D03*
%TD*%
D26*
%TO.C,C503*%
X228203100Y-92700001D03*
X228203100Y-91150001D03*
%TD*%
D48*
%TO.C,F301*%
X192703100Y-128950001D03*
X195503100Y-128950001D03*
%TD*%
D49*
%TO.C,C12*%
X208353100Y-83820001D03*
X208353100Y-84780001D03*
%TD*%
D32*
%TO.C,C14*%
X216883100Y-85750001D03*
X215923100Y-85750001D03*
%TD*%
D50*
%TO.C,L501*%
X226553100Y-91825001D03*
X223753100Y-91825001D03*
%TD*%
D13*
%TO.C,R702*%
X218928100Y-75800001D03*
X217278100Y-75800001D03*
%TD*%
D33*
%TO.C,R706*%
X213603100Y-82905001D03*
X213603100Y-81255001D03*
%TD*%
D16*
%TO.C,R15*%
X219853100Y-92400001D03*
X218833100Y-92400001D03*
%TD*%
D49*
%TO.C,C501*%
X202953100Y-98310001D03*
X202953100Y-99270001D03*
%TD*%
D29*
%TO.C,TP201*%
X187803100Y-83200001D03*
%TD*%
D41*
%TO.C,X1*%
X205403100Y-81270001D03*
X206803100Y-81270001D03*
X206803100Y-82370001D03*
X205403100Y-82370001D03*
%TD*%
D16*
%TO.C,R204*%
X225363100Y-76350001D03*
X224343100Y-76350001D03*
%TD*%
D51*
%TO.C,U3*%
X202853100Y-68750001D03*
X202853100Y-78650001D03*
X214753100Y-78650001D03*
X214753100Y-68750001D03*
D52*
X210778100Y-75675001D03*
X210778100Y-73700001D03*
X210778100Y-71725001D03*
X208803100Y-75675001D03*
X208803100Y-73700001D03*
X208803100Y-71725001D03*
X206828100Y-75675001D03*
X206828100Y-73700001D03*
D53*
X206828100Y-71725001D03*
D54*
X204003100Y-68800001D03*
X204803100Y-68800001D03*
X205603100Y-68800001D03*
X206403100Y-68800001D03*
X207203100Y-68800001D03*
X208003100Y-68800001D03*
X208803100Y-68800001D03*
X209603100Y-68800001D03*
X210403100Y-68800001D03*
X211203100Y-68800001D03*
X212003100Y-68800001D03*
X212803100Y-68800001D03*
X213603100Y-68800001D03*
D55*
X214703100Y-69700001D03*
X214703100Y-70500001D03*
X214703100Y-71300001D03*
X214703100Y-72100001D03*
X214703100Y-72900001D03*
X214703100Y-73700001D03*
X214703100Y-74500001D03*
X214703100Y-75300001D03*
X214703100Y-76100001D03*
X214703100Y-76900001D03*
X214703100Y-77700001D03*
D54*
X213603100Y-78600001D03*
X212803100Y-78600001D03*
X212003100Y-78600001D03*
X211203100Y-78600001D03*
X210403100Y-78600001D03*
X209603100Y-78600001D03*
X208803100Y-78600001D03*
X208003100Y-78600001D03*
X207203100Y-78600001D03*
X206403100Y-78600001D03*
X205603100Y-78600001D03*
X204803100Y-78600001D03*
X204003100Y-78600001D03*
D55*
X202903100Y-77700001D03*
X202903100Y-76900001D03*
X202903100Y-76100001D03*
X202903100Y-75300001D03*
X202903100Y-74500001D03*
X202903100Y-73700001D03*
X202903100Y-72900001D03*
X202903100Y-72100001D03*
X202903100Y-71300001D03*
X202903100Y-70500001D03*
X202903100Y-69700001D03*
%TD*%
D33*
%TO.C,R304*%
X228283100Y-110840001D03*
X228283100Y-109190001D03*
%TD*%
D32*
%TO.C,C16*%
X216903100Y-97500001D03*
X215943100Y-97500001D03*
%TD*%
D56*
%TO.C,C23*%
X212603100Y-99270001D03*
X212603100Y-98310001D03*
%TD*%
D16*
%TO.C,R710*%
X200503100Y-78500001D03*
X199483100Y-78500001D03*
%TD*%
D35*
%TO.C,C5*%
X200793100Y-85050001D03*
X201753100Y-85050001D03*
%TD*%
D42*
%TO.C,J3*%
X212553100Y-124100001D03*
X221403100Y-124100001D03*
D43*
X215103100Y-127000001D03*
X216353100Y-127000001D03*
X217603100Y-127000001D03*
X218853100Y-127000001D03*
%TD*%
D21*
%TO.C,R1*%
X205503100Y-83590001D03*
X205503100Y-84610001D03*
%TD*%
D57*
%TO.C,D303*%
X207783100Y-118980001D03*
X209783100Y-118030001D03*
X209783100Y-119930001D03*
%TD*%
D32*
%TO.C,C18*%
X216883100Y-91450001D03*
X215923100Y-91450001D03*
%TD*%
D34*
%TO.C,C204*%
X187853100Y-94225001D03*
X187853100Y-92325001D03*
%TD*%
D58*
%TO.C,C203*%
X188003100Y-99200001D03*
X188003100Y-96250001D03*
%TD*%
D59*
%TO.C,U601*%
X227498100Y-106365001D03*
D60*
X226523100Y-104815001D03*
X227173100Y-104815001D03*
X227823100Y-104815001D03*
X228473100Y-104815001D03*
X228473100Y-107915001D03*
X227823100Y-107915001D03*
X227173100Y-107915001D03*
X226523100Y-107915001D03*
%TD*%
D37*
%TO.C,C504*%
X228203100Y-94175001D03*
X228203100Y-96075001D03*
%TD*%
D13*
%TO.C,R707*%
X200328100Y-75300001D03*
X198678100Y-75300001D03*
%TD*%
D36*
%TO.C,C302*%
X187728100Y-124600001D03*
X190678100Y-124600001D03*
%TD*%
D61*
%TO.C,D301*%
X187703100Y-126950001D03*
X190503100Y-126950001D03*
%TD*%
D62*
%TO.C,FB201*%
X201253100Y-83300001D03*
X201253100Y-81175001D03*
%TD*%
D21*
%TO.C,R5*%
X206103100Y-98280001D03*
X206103100Y-99300001D03*
%TD*%
D45*
%TO.C,R201*%
X192928100Y-91625001D03*
X194578100Y-91625001D03*
%TD*%
D63*
%TO.C,C301*%
X188653100Y-129200001D03*
X190553100Y-129200001D03*
%TD*%
D13*
%TO.C,R705*%
X218928100Y-78800001D03*
X217278100Y-78800001D03*
%TD*%
D39*
%TO.C,C610*%
X198728100Y-69800001D03*
X200278100Y-69800001D03*
%TD*%
D14*
%TO.C,C206*%
X195303100Y-87890001D03*
X193403100Y-87890001D03*
%TD*%
D58*
%TO.C,C202*%
X190303100Y-99200001D03*
X190303100Y-96250001D03*
%TD*%
D14*
%TO.C,C205*%
X195303100Y-85900001D03*
X193403100Y-85900001D03*
%TD*%
D33*
%TO.C,R305*%
X225403100Y-123825001D03*
X225403100Y-122175001D03*
%TD*%
D49*
%TO.C,C502*%
X203903100Y-98310001D03*
X203903100Y-99270001D03*
%TD*%
D34*
%TO.C,C211*%
X195028100Y-82925001D03*
X195028100Y-81025001D03*
%TD*%
D56*
%TO.C,C2*%
X208103100Y-82300001D03*
X208103100Y-81340001D03*
%TD*%
D21*
%TO.C,R8*%
X209103100Y-98280001D03*
X209103100Y-99300001D03*
%TD*%
%TO.C,R10*%
X211503100Y-98280001D03*
X211503100Y-99300001D03*
%TD*%
D32*
%TO.C,C20*%
X216883100Y-90500001D03*
X215923100Y-90500001D03*
%TD*%
D26*
%TO.C,C606*%
X218963100Y-105360001D03*
X218963100Y-103810001D03*
%TD*%
D35*
%TO.C,C24*%
X200793100Y-87950001D03*
X201753100Y-87950001D03*
%TD*%
D64*
%TO.C,R608*%
X191903100Y-104812501D03*
X191903100Y-102987501D03*
%TD*%
D65*
%TO.C,U202*%
X190398100Y-77075001D03*
X190398100Y-78025001D03*
X190398100Y-78975001D03*
X187778100Y-78975001D03*
X187778100Y-78025001D03*
X187778100Y-77075001D03*
%TD*%
D35*
%TO.C,C7*%
X200793100Y-91400001D03*
X201753100Y-91400001D03*
%TD*%
D49*
%TO.C,C15*%
X209303100Y-83820001D03*
X209303100Y-84780001D03*
%TD*%
D66*
%TO.C,Q602*%
X192953100Y-116850001D03*
D67*
X190653100Y-110550001D03*
D66*
X190653100Y-116850001D03*
X188353100Y-116850001D03*
%TD*%
D33*
%TO.C,R306*%
X226903100Y-123825001D03*
X226903100Y-122175001D03*
%TD*%
D16*
%TO.C,R709*%
X200503100Y-77500001D03*
X199483100Y-77500001D03*
%TD*%
D32*
%TO.C,C8*%
X216883100Y-84800001D03*
X215923100Y-84800001D03*
%TD*%
D29*
%TO.C,TP203*%
X222978100Y-82800001D03*
%TD*%
D58*
%TO.C,C201*%
X192603100Y-99200001D03*
X192603100Y-96250001D03*
%TD*%
D29*
%TO.C,TP301*%
X199113100Y-118170001D03*
%TD*%
%TO.C,TP501*%
X227803100Y-99365001D03*
%TD*%
D49*
%TO.C,C1*%
X204103100Y-81340001D03*
X204103100Y-82300001D03*
%TD*%
D39*
%TO.C,C702*%
X198728100Y-71300001D03*
X200278100Y-71300001D03*
%TD*%
D68*
%TO.C,C605*%
X229993100Y-106315001D03*
X229993100Y-107865001D03*
%TD*%
D33*
%TO.C,R604*%
X224893100Y-104965001D03*
X224893100Y-103315001D03*
%TD*%
D69*
%TO.C,U501*%
X226260600Y-94180001D03*
X226260600Y-95130001D03*
X226260600Y-96080001D03*
X223985600Y-96080001D03*
X223985600Y-95130001D03*
X223985600Y-94180001D03*
%TD*%
D70*
%TO.C,U603*%
X208803100Y-128550001D03*
D71*
X208153100Y-127500001D03*
X208803100Y-127500001D03*
X209453100Y-127500001D03*
X209453100Y-129600001D03*
X208803100Y-129600001D03*
X208153100Y-129600001D03*
%TD*%
D72*
%TO.C,R11*%
X213603100Y-99290001D03*
X213603100Y-98270001D03*
%TD*%
D15*
%TO.C,C601*%
X229203100Y-119750001D03*
X227653100Y-119750001D03*
%TD*%
D26*
%TO.C,C218*%
X228528100Y-88400001D03*
X228528100Y-86850001D03*
%TD*%
D29*
%TO.C,TP303*%
X190683100Y-120150001D03*
%TD*%
D20*
%TO.C,R205*%
X223003100Y-79475001D03*
X223003100Y-81125001D03*
%TD*%
D49*
%TO.C,C11*%
X210253100Y-83820001D03*
X210253100Y-84780001D03*
%TD*%
D39*
%TO.C,C216*%
X198128100Y-81537501D03*
X199678100Y-81537501D03*
%TD*%
D15*
%TO.C,C609*%
X209553100Y-126050001D03*
X208003100Y-126050001D03*
%TD*%
D33*
%TO.C,R606*%
X195103100Y-104975001D03*
X195103100Y-103325001D03*
%TD*%
D13*
%TO.C,R610*%
X209648100Y-123790001D03*
X207998100Y-123790001D03*
%TD*%
%TO.C,R603*%
X226253100Y-118250001D03*
X224603100Y-118250001D03*
%TD*%
D35*
%TO.C,C3*%
X200793100Y-93750001D03*
X201753100Y-93750001D03*
%TD*%
D33*
%TO.C,R612*%
X215128100Y-82905001D03*
X215128100Y-81255001D03*
%TD*%
D34*
%TO.C,C215*%
X225015600Y-83750001D03*
X225015600Y-81850001D03*
%TD*%
D39*
%TO.C,C217*%
X198128100Y-83037501D03*
X199678100Y-83037501D03*
%TD*%
D33*
%TO.C,R202*%
X193003100Y-94700001D03*
X193003100Y-93050001D03*
%TD*%
D18*
%TO.C,R12*%
X218833100Y-90100001D03*
X219853100Y-90100001D03*
%TD*%
D30*
%TO.C,J5*%
X187803100Y-69150001D03*
X195703100Y-69150001D03*
D31*
X189253100Y-72275001D03*
X190253100Y-72275001D03*
X191253100Y-72275001D03*
X192253100Y-72275001D03*
X193253100Y-72275001D03*
X194253100Y-72275001D03*
%TD*%
D13*
%TO.C,R203*%
X194028100Y-126900001D03*
X192378100Y-126900001D03*
%TD*%
D72*
%TO.C,R4*%
X204903100Y-99300001D03*
X204903100Y-98280001D03*
%TD*%
D14*
%TO.C,C207*%
X195303100Y-89850001D03*
X193403100Y-89850001D03*
%TD*%
D72*
%TO.C,R2*%
X206503100Y-84610001D03*
X206503100Y-83590001D03*
%TD*%
D73*
%TO.C,U201*%
X189603100Y-92200001D03*
X190553100Y-92200001D03*
X191503100Y-92200001D03*
X191503100Y-94475001D03*
X190553100Y-94475001D03*
X189603100Y-94475001D03*
%TD*%
D74*
%TO.C,L203*%
X226290600Y-80250001D03*
X224715600Y-80250001D03*
%TD*%
D15*
%TO.C,C209*%
X190653100Y-75575001D03*
X189103100Y-75575001D03*
%TD*%
D34*
%TO.C,C214*%
X227003100Y-83750001D03*
X227003100Y-81850001D03*
%TD*%
D14*
%TO.C,C212*%
X228553100Y-77000001D03*
X226653100Y-77000001D03*
%TD*%
D13*
%TO.C,R501*%
X228653100Y-97575001D03*
X227003100Y-97575001D03*
%TD*%
D32*
%TO.C,C19*%
X216883100Y-93350001D03*
X215923100Y-93350001D03*
%TD*%
D26*
%TO.C,C604*%
X229993100Y-104865001D03*
X229993100Y-103315001D03*
%TD*%
D32*
%TO.C,C21*%
X216883100Y-88600001D03*
X215923100Y-88600001D03*
%TD*%
D18*
%TO.C,R17*%
X215913100Y-95550001D03*
X216933100Y-95550001D03*
%TD*%
D20*
%TO.C,R607*%
X193603100Y-103325001D03*
X193603100Y-104975001D03*
%TD*%
M02*
