%TF.GenerationSoftware,KiCad,Pcbnew,9.0.6*%
%TF.CreationDate,2026-01-17T11:58:25+01:00*%
%TF.ProjectId,peak,7065616b-2e6b-4696-9361-645f70636258,rev?*%
%TF.SameCoordinates,Original*%
%TF.FileFunction,Legend,Top*%
%TF.FilePolarity,Positive*%
%FSLAX46Y46*%
G04 Gerber Fmt 4.6, Leading zero omitted, Abs format (unit mm)*
G04 Created by KiCad (PCBNEW 9.0.6) date 2026-01-17 11:58:25*
%MOMM*%
%LPD*%
G01*
G04 APERTURE LIST*
G04 Aperture macros list*
%AMRoundRect*
0 Rectangle with rounded corners*
0 $1 Rounding radius*
0 $2 $3 $4 $5 $6 $7 $8 $9 X,Y pos of 4 corners*
0 Add a 4 corners polygon primitive as box body*
4,1,4,$2,$3,$4,$5,$6,$7,$8,$9,$2,$3,0*
0 Add four circle primitives for the rounded corners*
1,1,$1+$1,$2,$3*
1,1,$1+$1,$4,$5*
1,1,$1+$1,$6,$7*
1,1,$1+$1,$8,$9*
0 Add four rect primitives between the rounded corners*
20,1,$1+$1,$2,$3,$4,$5,0*
20,1,$1+$1,$4,$5,$6,$7,0*
20,1,$1+$1,$6,$7,$8,$9,0*
20,1,$1+$1,$8,$9,$2,$3,0*%
%AMFreePoly0*
4,1,6,0.725000,-0.725000,-0.725000,-0.725000,-0.725000,0.125000,-0.125000,0.725000,0.725000,0.725000,0.725000,-0.725000,0.725000,-0.725000,$1*%
G04 Aperture macros list end*
%ADD10C,0.100000*%
%ADD11C,0.150000*%
%ADD12C,0.300000*%
%ADD13C,0.120000*%
%ADD14C,0.200000*%
%ADD15R,2.100000X2.100000*%
%ADD16O,0.200000X0.650000*%
%ADD17O,0.650000X0.200000*%
%ADD18RoundRect,0.200000X-0.200000X-0.275000X0.200000X-0.275000X0.200000X0.275000X-0.200000X0.275000X0*%
%ADD19RoundRect,0.250000X-0.250000X-0.475000X0.250000X-0.475000X0.250000X0.475000X-0.250000X0.475000X0*%
%ADD20RoundRect,0.225000X-0.225000X-0.250000X0.225000X-0.250000X0.225000X0.250000X-0.225000X0.250000X0*%
%ADD21RoundRect,0.135000X-0.135000X-0.185000X0.135000X-0.185000X0.135000X0.185000X-0.135000X0.185000X0*%
%ADD22RoundRect,0.087500X0.087500X-0.250000X0.087500X0.250000X-0.087500X0.250000X-0.087500X-0.250000X0*%
%ADD23RoundRect,0.135000X0.135000X0.185000X-0.135000X0.185000X-0.135000X-0.185000X0.135000X-0.185000X0*%
%ADD24RoundRect,0.250000X-0.300000X-1.600000X0.300000X-1.600000X0.300000X1.600000X-0.300000X1.600000X0*%
%ADD25RoundRect,0.200000X0.275000X-0.200000X0.275000X0.200000X-0.275000X0.200000X-0.275000X-0.200000X0*%
%ADD26RoundRect,0.135000X0.185000X-0.135000X0.185000X0.135000X-0.185000X0.135000X-0.185000X-0.135000X0*%
%ADD27R,3.400000X4.300000*%
%ADD28RoundRect,0.125000X-0.250000X-0.125000X0.250000X-0.125000X0.250000X0.125000X-0.250000X0.125000X0*%
%ADD29R,0.300000X1.000000*%
%ADD30R,0.300000X0.700000*%
%ADD31RoundRect,0.225000X-0.250000X0.225000X-0.250000X-0.225000X0.250000X-0.225000X0.250000X0.225000X0*%
%ADD32RoundRect,0.250000X0.450000X-0.262500X0.450000X0.262500X-0.450000X0.262500X-0.450000X-0.262500X0*%
%ADD33RoundRect,0.250000X0.650000X-0.750000X0.650000X0.750000X-0.650000X0.750000X-0.650000X-0.750000X0*%
%ADD34C,1.000000*%
%ADD35RoundRect,0.225000X0.225000X0.625000X-0.225000X0.625000X-0.225000X-0.625000X0.225000X-0.625000X0*%
%ADD36RoundRect,0.150000X0.150000X0.475000X-0.150000X0.475000X-0.150000X-0.475000X0.150000X-0.475000X0*%
%ADD37RoundRect,0.140000X-0.140000X-0.170000X0.140000X-0.170000X0.140000X0.170000X-0.140000X0.170000X0*%
%ADD38RoundRect,0.200000X-0.275000X0.200000X-0.275000X-0.200000X0.275000X-0.200000X0.275000X0.200000X0*%
%ADD39RoundRect,0.250000X-0.475000X0.250000X-0.475000X-0.250000X0.475000X-0.250000X0.475000X0.250000X0*%
%ADD40RoundRect,0.140000X0.140000X0.170000X-0.140000X0.170000X-0.140000X-0.170000X0.140000X-0.170000X0*%
%ADD41RoundRect,0.250000X0.325000X0.650000X-0.325000X0.650000X-0.325000X-0.650000X0.325000X-0.650000X0*%
%ADD42RoundRect,0.250000X0.475000X-0.250000X0.475000X0.250000X-0.475000X0.250000X-0.475000X-0.250000X0*%
%ADD43RoundRect,0.162500X-0.367500X-0.162500X0.367500X-0.162500X0.367500X0.162500X-0.367500X0.162500X0*%
%ADD44RoundRect,0.225000X0.225000X0.250000X-0.225000X0.250000X-0.225000X-0.250000X0.225000X-0.250000X0*%
%ADD45RoundRect,0.250000X-0.262500X-0.450000X0.262500X-0.450000X0.262500X0.450000X-0.262500X0.450000X0*%
%ADD46RoundRect,0.200000X-0.250000X-0.200000X0.250000X-0.200000X0.250000X0.200000X-0.250000X0.200000X0*%
%ADD47RoundRect,0.250001X0.799999X1.249999X-0.799999X1.249999X-0.799999X-1.249999X0.799999X-1.249999X0*%
%ADD48RoundRect,0.200000X0.200000X0.600000X-0.200000X0.600000X-0.200000X-0.600000X0.200000X-0.600000X0*%
%ADD49RoundRect,0.162500X0.162500X-0.367500X0.162500X0.367500X-0.162500X0.367500X-0.162500X-0.367500X0*%
%ADD50RoundRect,0.200000X0.200000X0.275000X-0.200000X0.275000X-0.200000X-0.275000X0.200000X-0.275000X0*%
%ADD51RoundRect,0.250000X-0.250000X-0.550000X0.250000X-0.550000X0.250000X0.550000X-0.250000X0.550000X0*%
%ADD52RoundRect,0.093750X-0.093750X-0.106250X0.093750X-0.106250X0.093750X0.106250X-0.093750X0.106250X0*%
%ADD53RoundRect,0.250000X0.375000X0.625000X-0.375000X0.625000X-0.375000X-0.625000X0.375000X-0.625000X0*%
%ADD54RoundRect,0.140000X0.170000X-0.140000X0.170000X0.140000X-0.170000X0.140000X-0.170000X-0.140000X0*%
%ADD55RoundRect,0.250000X-0.375000X-1.075000X0.375000X-1.075000X0.375000X1.075000X-0.375000X1.075000X0*%
%ADD56R,0.700000X0.700000*%
%ADD57R,1.450000X1.450000*%
%ADD58FreePoly0,0.000000*%
%ADD59R,0.400000X0.800000*%
%ADD60R,0.800000X0.400000*%
%ADD61RoundRect,0.140000X-0.170000X0.140000X-0.170000X-0.140000X0.170000X-0.140000X0.170000X0.140000X0*%
%ADD62RoundRect,0.200000X0.250000X0.200000X-0.250000X0.200000X-0.250000X-0.200000X0.250000X-0.200000X0*%
%ADD63RoundRect,0.250000X-0.650000X0.325000X-0.650000X-0.325000X0.650000X-0.325000X0.650000X0.325000X0*%
%ADD64R,2.400000X1.550000*%
%ADD65R,0.350000X0.650000*%
%ADD66RoundRect,0.250000X0.300000X0.300000X-0.300000X0.300000X-0.300000X-0.300000X0.300000X-0.300000X0*%
%ADD67RoundRect,0.218750X-0.381250X0.218750X-0.381250X-0.218750X0.381250X-0.218750X0.381250X0.218750X0*%
%ADD68RoundRect,0.250000X0.250000X0.475000X-0.250000X0.475000X-0.250000X-0.475000X0.250000X-0.475000X0*%
%ADD69RoundRect,0.250000X-0.450000X0.262500X-0.450000X-0.262500X0.450000X-0.262500X0.450000X0.262500X0*%
%ADD70RoundRect,0.162500X-0.447500X-0.162500X0.447500X-0.162500X0.447500X0.162500X-0.447500X0.162500X0*%
%ADD71RoundRect,0.250000X0.500000X-0.750000X0.500000X0.750000X-0.500000X0.750000X-0.500000X-0.750000X0*%
%ADD72RoundRect,0.250000X1.650000X-0.750000X1.650000X0.750000X-1.650000X0.750000X-1.650000X-0.750000X0*%
%ADD73RoundRect,0.225000X0.250000X-0.225000X0.250000X0.225000X-0.250000X0.225000X-0.250000X-0.225000X0*%
%ADD74RoundRect,0.150000X-0.512500X-0.150000X0.512500X-0.150000X0.512500X0.150000X-0.512500X0.150000X0*%
%ADD75RoundRect,0.250000X0.550000X-0.250000X0.550000X0.250000X-0.550000X0.250000X-0.550000X-0.250000X0*%
%ADD76RoundRect,0.087500X0.087500X-0.237500X0.087500X0.237500X-0.087500X0.237500X-0.087500X-0.237500X0*%
%ADD77RoundRect,0.135000X-0.185000X0.135000X-0.185000X-0.135000X0.185000X-0.135000X0.185000X0.135000X0*%
%ADD78RoundRect,0.150000X0.150000X-0.512500X0.150000X0.512500X-0.150000X0.512500X-0.150000X-0.512500X0*%
%ADD79RoundRect,0.218750X-0.218750X-0.256250X0.218750X-0.256250X0.218750X0.256250X-0.218750X0.256250X0*%
G04 APERTURE END LIST*
D10*
X229403100Y-79700001D02*
X228203100Y-79700001D01*
X228203100Y-84600001D01*
X222103100Y-84600001D01*
X222103100Y-75700001D01*
X229403100Y-75700001D01*
X229403100Y-79700001D01*
X223453100Y-86000001D02*
X229403100Y-86000001D01*
X229403100Y-89200001D01*
X223453100Y-89200001D01*
X223453100Y-86000001D01*
X200253100Y-84500001D02*
X202303100Y-84500001D01*
X202303100Y-89450001D01*
X200253100Y-89450001D01*
X200253100Y-84500001D01*
X230903100Y-108700001D02*
X229203100Y-108700001D01*
X229203100Y-111700001D01*
X225703100Y-111700001D01*
X225703100Y-105800001D01*
X223903100Y-105800001D01*
X223903100Y-102400001D01*
X230903100Y-102400001D01*
X230903100Y-108700001D01*
X223603100Y-109700001D02*
X220003100Y-109700001D01*
X220003100Y-106700001D01*
X218103100Y-106700001D01*
X218103100Y-102400001D01*
X223603100Y-102400001D01*
X223603100Y-109700001D01*
X215403100Y-84250001D02*
X217403100Y-84250001D01*
X217403100Y-93900001D01*
X215403100Y-93900001D01*
X215403100Y-84250001D01*
X222753100Y-90125001D02*
X229403100Y-90125001D01*
X229403100Y-100275001D01*
X222753100Y-100275001D01*
X222753100Y-90125001D01*
D11*
X200058814Y-116346820D02*
X200630242Y-116346820D01*
X200344528Y-117346820D02*
X200344528Y-116346820D01*
X200963576Y-117346820D02*
X200963576Y-116346820D01*
X200963576Y-116346820D02*
X201344528Y-116346820D01*
X201344528Y-116346820D02*
X201439766Y-116394439D01*
X201439766Y-116394439D02*
X201487385Y-116442058D01*
X201487385Y-116442058D02*
X201535004Y-116537296D01*
X201535004Y-116537296D02*
X201535004Y-116680153D01*
X201535004Y-116680153D02*
X201487385Y-116775391D01*
X201487385Y-116775391D02*
X201439766Y-116823010D01*
X201439766Y-116823010D02*
X201344528Y-116870629D01*
X201344528Y-116870629D02*
X200963576Y-116870629D01*
X201868338Y-116346820D02*
X202487385Y-116346820D01*
X202487385Y-116346820D02*
X202154052Y-116727772D01*
X202154052Y-116727772D02*
X202296909Y-116727772D01*
X202296909Y-116727772D02*
X202392147Y-116775391D01*
X202392147Y-116775391D02*
X202439766Y-116823010D01*
X202439766Y-116823010D02*
X202487385Y-116918248D01*
X202487385Y-116918248D02*
X202487385Y-117156343D01*
X202487385Y-117156343D02*
X202439766Y-117251581D01*
X202439766Y-117251581D02*
X202392147Y-117299201D01*
X202392147Y-117299201D02*
X202296909Y-117346820D01*
X202296909Y-117346820D02*
X202011195Y-117346820D01*
X202011195Y-117346820D02*
X201915957Y-117299201D01*
X201915957Y-117299201D02*
X201868338Y-117251581D01*
X203106433Y-116346820D02*
X203201671Y-116346820D01*
X203201671Y-116346820D02*
X203296909Y-116394439D01*
X203296909Y-116394439D02*
X203344528Y-116442058D01*
X203344528Y-116442058D02*
X203392147Y-116537296D01*
X203392147Y-116537296D02*
X203439766Y-116727772D01*
X203439766Y-116727772D02*
X203439766Y-116965867D01*
X203439766Y-116965867D02*
X203392147Y-117156343D01*
X203392147Y-117156343D02*
X203344528Y-117251581D01*
X203344528Y-117251581D02*
X203296909Y-117299201D01*
X203296909Y-117299201D02*
X203201671Y-117346820D01*
X203201671Y-117346820D02*
X203106433Y-117346820D01*
X203106433Y-117346820D02*
X203011195Y-117299201D01*
X203011195Y-117299201D02*
X202963576Y-117251581D01*
X202963576Y-117251581D02*
X202915957Y-117156343D01*
X202915957Y-117156343D02*
X202868338Y-116965867D01*
X202868338Y-116965867D02*
X202868338Y-116727772D01*
X202868338Y-116727772D02*
X202915957Y-116537296D01*
X202915957Y-116537296D02*
X202963576Y-116442058D01*
X202963576Y-116442058D02*
X203011195Y-116394439D01*
X203011195Y-116394439D02*
X203106433Y-116346820D01*
X203820719Y-116442058D02*
X203868338Y-116394439D01*
X203868338Y-116394439D02*
X203963576Y-116346820D01*
X203963576Y-116346820D02*
X204201671Y-116346820D01*
X204201671Y-116346820D02*
X204296909Y-116394439D01*
X204296909Y-116394439D02*
X204344528Y-116442058D01*
X204344528Y-116442058D02*
X204392147Y-116537296D01*
X204392147Y-116537296D02*
X204392147Y-116632534D01*
X204392147Y-116632534D02*
X204344528Y-116775391D01*
X204344528Y-116775391D02*
X203773100Y-117346820D01*
X203773100Y-117346820D02*
X204392147Y-117346820D01*
X199719766Y-128454820D02*
X199719766Y-129169105D01*
X199719766Y-129169105D02*
X199672147Y-129311962D01*
X199672147Y-129311962D02*
X199576909Y-129407201D01*
X199576909Y-129407201D02*
X199434052Y-129454820D01*
X199434052Y-129454820D02*
X199338814Y-129454820D01*
X200148338Y-128550058D02*
X200195957Y-128502439D01*
X200195957Y-128502439D02*
X200291195Y-128454820D01*
X200291195Y-128454820D02*
X200529290Y-128454820D01*
X200529290Y-128454820D02*
X200624528Y-128502439D01*
X200624528Y-128502439D02*
X200672147Y-128550058D01*
X200672147Y-128550058D02*
X200719766Y-128645296D01*
X200719766Y-128645296D02*
X200719766Y-128740534D01*
X200719766Y-128740534D02*
X200672147Y-128883391D01*
X200672147Y-128883391D02*
X200100719Y-129454820D01*
X200100719Y-129454820D02*
X200719766Y-129454820D01*
X216644766Y-128454820D02*
X216644766Y-129169105D01*
X216644766Y-129169105D02*
X216597147Y-129311962D01*
X216597147Y-129311962D02*
X216501909Y-129407201D01*
X216501909Y-129407201D02*
X216359052Y-129454820D01*
X216359052Y-129454820D02*
X216263814Y-129454820D01*
X217025719Y-128454820D02*
X217644766Y-128454820D01*
X217644766Y-128454820D02*
X217311433Y-128835772D01*
X217311433Y-128835772D02*
X217454290Y-128835772D01*
X217454290Y-128835772D02*
X217549528Y-128883391D01*
X217549528Y-128883391D02*
X217597147Y-128931010D01*
X217597147Y-128931010D02*
X217644766Y-129026248D01*
X217644766Y-129026248D02*
X217644766Y-129264343D01*
X217644766Y-129264343D02*
X217597147Y-129359581D01*
X217597147Y-129359581D02*
X217549528Y-129407201D01*
X217549528Y-129407201D02*
X217454290Y-129454820D01*
X217454290Y-129454820D02*
X217168576Y-129454820D01*
X217168576Y-129454820D02*
X217073338Y-129407201D01*
X217073338Y-129407201D02*
X217025719Y-129359581D01*
%TO.C,U1*%
D12*
X202853100Y-86500001D02*
G75*
G02*
X202553100Y-86500001I-150000J0D01*
G01*
X202553100Y-86500001D02*
G75*
G02*
X202853100Y-86500001I150000J0D01*
G01*
D13*
X213953100Y-96350001D02*
X213953100Y-95925001D01*
X213953100Y-86050001D02*
X213953100Y-86475001D01*
X213528100Y-96350001D02*
X213953100Y-96350001D01*
X213528100Y-86050001D02*
X213953100Y-86050001D01*
X204078100Y-96350001D02*
X203653100Y-96350001D01*
X204078100Y-86050001D02*
X203478100Y-86050001D01*
X203653100Y-96350001D02*
X203653100Y-95925001D01*
%TO.C,R605*%
X229018100Y-104240001D02*
X229018100Y-102640001D01*
X229018100Y-102640001D02*
X226018100Y-102640001D01*
X226018100Y-104240001D02*
X229018100Y-104240001D01*
X226018100Y-102640001D02*
X226018100Y-104240001D01*
%TO.C,C208*%
X189341848Y-81535001D02*
X189864352Y-81535001D01*
X189341848Y-80065001D02*
X189864352Y-80065001D01*
%TO.C,C213*%
X227262520Y-79260001D02*
X227543680Y-79260001D01*
X227262520Y-78240001D02*
X227543680Y-78240001D01*
%TO.C,R703*%
X217865842Y-74822501D02*
X218340358Y-74822501D01*
X217865842Y-73777501D02*
X218340358Y-73777501D01*
%TO.C,R16*%
X220293100Y-93900001D02*
X220293100Y-92900001D01*
X220293100Y-92900001D02*
X218393100Y-92900001D01*
X218393100Y-93900001D02*
X220293100Y-93900001D01*
X218393100Y-92900001D02*
X218393100Y-93900001D01*
%TO.C,U203*%
X223913100Y-78982501D02*
X223723100Y-79122501D01*
X223723100Y-78842501D01*
X223913100Y-78982501D01*
G36*
X223913100Y-78982501D02*
G01*
X223723100Y-79122501D01*
X223723100Y-78842501D01*
X223913100Y-78982501D01*
G37*
X225788100Y-77552501D02*
X225788100Y-78972501D01*
X223918100Y-78688069D02*
X223918100Y-77552501D01*
%TO.C,R701*%
X217865842Y-77822501D02*
X218340358Y-77822501D01*
X217865842Y-76777501D02*
X218340358Y-76777501D01*
%TO.C,R3*%
X197603100Y-94200001D02*
X197603100Y-93200001D01*
X197603100Y-93200001D02*
X195703100Y-93200001D01*
X195703100Y-94200001D02*
X197603100Y-94200001D01*
X195703100Y-93200001D02*
X195703100Y-94200001D01*
%TO.C,L202*%
X195788100Y-80135001D02*
X191568100Y-80135001D01*
X191568100Y-75915001D02*
X195788100Y-75915001D01*
%TO.C,R308*%
X230025600Y-127237259D02*
X230025600Y-126762743D01*
X228980600Y-127237259D02*
X228980600Y-126762743D01*
%TO.C,R7*%
X208603100Y-99740001D02*
X208603100Y-97840001D01*
X208603100Y-97840001D02*
X207603100Y-97840001D01*
X207603100Y-99740001D02*
X208603100Y-99740001D01*
X207603100Y-97840001D02*
X207603100Y-99740001D01*
%TO.C,U2*%
X195513100Y-95085001D02*
X195183100Y-95325001D01*
X195183100Y-94845001D01*
X195513100Y-95085001D01*
G36*
X195513100Y-95085001D02*
G01*
X195183100Y-95325001D01*
X195183100Y-94845001D01*
X195513100Y-95085001D01*
G37*
X201963100Y-99605001D02*
X195743100Y-99605001D01*
X201963100Y-99410001D02*
X201963100Y-99605001D01*
X201963100Y-94385001D02*
X201963100Y-94580001D01*
X195743100Y-99605001D02*
X195743100Y-99410001D01*
X195743100Y-94580001D02*
X195743100Y-94385001D01*
X195743100Y-94385001D02*
X201963100Y-94385001D01*
%TO.C,R18*%
X217373100Y-97050001D02*
X217373100Y-96050001D01*
X217373100Y-96050001D02*
X215473100Y-96050001D01*
X215473100Y-97050001D02*
X217373100Y-97050001D01*
X215473100Y-96050001D02*
X215473100Y-97050001D01*
D14*
%TO.C,J1*%
X204003100Y-100900000D02*
G75*
G02*
X203903100Y-100900000I-50000J0D01*
G01*
X204003100Y-100900000D02*
G75*
G02*
X203903100Y-100900000I-50000J0D01*
G01*
X203903100Y-100900000D02*
G75*
G02*
X204003100Y-100900000I50000J0D01*
G01*
D10*
X214653100Y-103400000D02*
X214653100Y-103400000D01*
X214653100Y-103400000D02*
X214653100Y-101600000D01*
X214653100Y-101600000D02*
X214653100Y-103400000D01*
X214653100Y-101600000D02*
X214653100Y-101600000D01*
X214653100Y-101600000D02*
X214653100Y-101600000D01*
X214653100Y-101600000D02*
X214303100Y-101600000D01*
X214303100Y-101600000D02*
X214653100Y-101600000D01*
X214303100Y-101600000D02*
X214303100Y-101600000D01*
X213553100Y-105200000D02*
X203803100Y-105200000D01*
X213553100Y-105150000D02*
X213553100Y-105200000D01*
D14*
X204003100Y-100900000D02*
X204003100Y-100900000D01*
X203903100Y-100900000D02*
X203903100Y-100900000D01*
X203903100Y-100900000D02*
X203903100Y-100900000D01*
D10*
X203803100Y-105200000D02*
X203803100Y-105150000D01*
X203803100Y-105150000D02*
X213553100Y-105150000D01*
X203303100Y-101650000D02*
X203303100Y-101600000D01*
X203303100Y-101600000D02*
X202953100Y-101600000D01*
X202953100Y-103400000D02*
X202953100Y-103400000D01*
X202953100Y-103400000D02*
X202953100Y-101650000D01*
X202953100Y-101650000D02*
X203303100Y-101650000D01*
X202953100Y-101650000D02*
X202953100Y-103400000D01*
X202953100Y-101650000D02*
X202953100Y-101650000D01*
X202953100Y-101600000D02*
X202953100Y-101650000D01*
D13*
%TO.C,R601*%
X225190842Y-120272501D02*
X225665358Y-120272501D01*
X225190842Y-119227501D02*
X225665358Y-119227501D01*
%TO.C,C219*%
X224838100Y-87449421D02*
X224838100Y-87730581D01*
X223818100Y-87449421D02*
X223818100Y-87730581D01*
%TO.C,R609*%
X190738100Y-104127065D02*
X190738100Y-103672937D01*
X189268100Y-104127065D02*
X189268100Y-103672937D01*
%TO.C,L201*%
X192463100Y-90735001D02*
X190913100Y-90735001D01*
X192463100Y-84815001D02*
X192463100Y-90735001D01*
X190913100Y-84815001D02*
X192463100Y-84815001D01*
X188593100Y-90735001D02*
X187043100Y-90735001D01*
X187043100Y-90735001D02*
X187043100Y-84815001D01*
X187043100Y-84815001D02*
X188593100Y-84815001D01*
%TO.C,TP302*%
X202973100Y-118340001D02*
G75*
G02*
X201573100Y-118340001I-700000J0D01*
G01*
X201573100Y-118340001D02*
G75*
G02*
X202973100Y-118340001I700000J0D01*
G01*
%TO.C,J4*%
X230363100Y-72035001D02*
X228913100Y-72035001D01*
X230363100Y-70285001D02*
X230363100Y-72035001D01*
X230363100Y-68065001D02*
X230363100Y-67515001D01*
X230363100Y-67515001D02*
X221343100Y-67515001D01*
X228913100Y-72035001D02*
X228913100Y-72925001D01*
X221343100Y-72035001D02*
X222793100Y-72035001D01*
X221343100Y-70285001D02*
X221343100Y-72035001D01*
X221343100Y-67515001D02*
X221343100Y-68065001D01*
%TO.C,R14*%
X202223100Y-87450001D02*
X202223100Y-86450001D01*
X202223100Y-86450001D02*
X200323100Y-86450001D01*
X200323100Y-87450001D02*
X202223100Y-87450001D01*
X200323100Y-86450001D02*
X200323100Y-87450001D01*
%TO.C,C17*%
X216295264Y-89910001D02*
X216510936Y-89910001D01*
X216295264Y-89190001D02*
X216510936Y-89190001D01*
%TO.C,R9*%
X211003100Y-99740001D02*
X211003100Y-97840001D01*
X211003100Y-97840001D02*
X210003100Y-97840001D01*
X210003100Y-99740001D02*
X211003100Y-99740001D01*
X210003100Y-97840001D02*
X210003100Y-99740001D01*
%TO.C,R301*%
X221385600Y-107847743D02*
X221385600Y-108322259D01*
X220340600Y-107847743D02*
X220340600Y-108322259D01*
%TO.C,C210*%
X193763100Y-81713749D02*
X193763100Y-82236253D01*
X192293100Y-81713749D02*
X192293100Y-82236253D01*
%TO.C,C6*%
X201380936Y-89260001D02*
X201165264Y-89260001D01*
X201380936Y-88540001D02*
X201165264Y-88540001D01*
%TO.C,C13*%
X201380936Y-92710001D02*
X201165264Y-92710001D01*
X201380936Y-91990001D02*
X201165264Y-91990001D01*
%TO.C,C4*%
X201380936Y-86360001D02*
X201165264Y-86360001D01*
X201380936Y-85640001D02*
X201165264Y-85640001D01*
%TO.C,C9*%
X216295264Y-87060001D02*
X216510936Y-87060001D01*
X216295264Y-86340001D02*
X216510936Y-86340001D01*
%TO.C,R602*%
X225190842Y-117272501D02*
X225665358Y-117272501D01*
X225190842Y-116227501D02*
X225665358Y-116227501D01*
%TO.C,TP202*%
X197763100Y-78050001D02*
G75*
G02*
X196363100Y-78050001I-700000J0D01*
G01*
X196363100Y-78050001D02*
G75*
G02*
X197763100Y-78050001I700000J0D01*
G01*
%TO.C,R708*%
X212525600Y-82317259D02*
X212525600Y-81842743D01*
X211480600Y-82317259D02*
X211480600Y-81842743D01*
%TO.C,C303*%
X189914352Y-123210001D02*
X188491848Y-123210001D01*
X189914352Y-121390001D02*
X188491848Y-121390001D01*
%TO.C,C607*%
X188788100Y-104161253D02*
X188788100Y-103638749D01*
X187318100Y-104161253D02*
X187318100Y-103638749D01*
D14*
%TO.C,D302*%
X225116600Y-125600001D02*
G75*
G02*
X224989600Y-125600001I-63500J0D01*
G01*
X224989600Y-125600001D02*
G75*
G02*
X225116600Y-125600001I63500J0D01*
G01*
D13*
X228853100Y-129200001D02*
X228853100Y-125400001D01*
X228853100Y-125400001D02*
X225353100Y-125400001D01*
X224853100Y-129200001D02*
X228853100Y-129200001D01*
X224853100Y-125900001D02*
X224853100Y-129200001D01*
%TO.C,C701*%
X199643680Y-74310001D02*
X199362520Y-74310001D01*
X199643680Y-73290001D02*
X199362520Y-73290001D01*
%TO.C,R6*%
X207603100Y-99740001D02*
X207603100Y-97840001D01*
X207603100Y-97840001D02*
X206603100Y-97840001D01*
X206603100Y-99740001D02*
X207603100Y-99740001D01*
X206603100Y-97840001D02*
X206603100Y-99740001D01*
%TO.C,C10*%
X216295264Y-92760001D02*
X216510936Y-92760001D01*
X216295264Y-92040001D02*
X216510936Y-92040001D01*
%TO.C,R302*%
X222885600Y-107847743D02*
X222885600Y-108322259D01*
X221840600Y-107847743D02*
X221840600Y-108322259D01*
%TO.C,R13*%
X220293100Y-91600001D02*
X220293100Y-90600001D01*
X220293100Y-90600001D02*
X218393100Y-90600001D01*
X218393100Y-91600001D02*
X220293100Y-91600001D01*
X218393100Y-90600001D02*
X218393100Y-91600001D01*
%TO.C,R303*%
X227295600Y-109777743D02*
X227295600Y-110252259D01*
X226250600Y-109777743D02*
X226250600Y-110252259D01*
%TO.C,R704*%
X217865842Y-73322501D02*
X218340358Y-73322501D01*
X217865842Y-72277501D02*
X218340358Y-72277501D01*
%TO.C,C603*%
X228287520Y-118760001D02*
X228568680Y-118760001D01*
X228287520Y-117740001D02*
X228568680Y-117740001D01*
%TO.C,C608*%
X217138100Y-81939421D02*
X217138100Y-82220581D01*
X216118100Y-81939421D02*
X216118100Y-82220581D01*
%TO.C,R502*%
X224413536Y-98510001D02*
X224867664Y-98510001D01*
X224413536Y-97040001D02*
X224867664Y-97040001D01*
%TO.C,Q601*%
X194253100Y-109250001D02*
X194253100Y-105650001D01*
X194253100Y-105650001D02*
X190653100Y-105650001D01*
X190653100Y-109250001D02*
X194253100Y-109250001D01*
X190653100Y-105650001D02*
X190653100Y-109250001D01*
%TO.C,C22*%
X216295264Y-88010001D02*
X216510936Y-88010001D01*
X216295264Y-87290001D02*
X216510936Y-87290001D01*
%TO.C,R206*%
X223525600Y-77537259D02*
X223525600Y-77062743D01*
X222480600Y-77537259D02*
X222480600Y-77062743D01*
%TO.C,J2*%
X204163100Y-126310001D02*
X203213100Y-126310001D01*
X204163100Y-125860001D02*
X204163100Y-126310001D01*
X204163100Y-122340001D02*
X204163100Y-121890001D01*
X204163100Y-121890001D02*
X195943100Y-121890001D01*
X203213100Y-126310001D02*
X203213100Y-127800001D01*
X195943100Y-126310001D02*
X196893100Y-126310001D01*
X195943100Y-125860001D02*
X195943100Y-126310001D01*
X195943100Y-121890001D02*
X195943100Y-122340001D01*
%TO.C,C602*%
X228287520Y-117260001D02*
X228568680Y-117260001D01*
X228287520Y-116240001D02*
X228568680Y-116240001D01*
D14*
%TO.C,U602*%
X219876600Y-106385001D02*
G75*
G02*
X219749600Y-106385001I-63500J0D01*
G01*
X219749600Y-106385001D02*
G75*
G02*
X219876600Y-106385001I63500J0D01*
G01*
D13*
X223413100Y-106585001D02*
X223413100Y-102585001D01*
X223413100Y-102585001D02*
X219613100Y-102585001D01*
X220113100Y-106585001D02*
X223413100Y-106585001D01*
X219613100Y-102585001D02*
X219613100Y-106085001D01*
%TO.C,DZ601*%
X190653100Y-109250001D02*
X190653100Y-105650001D01*
X190653100Y-105650001D02*
X187053100Y-105650001D01*
X187053100Y-109250001D02*
X190653100Y-109250001D01*
X187053100Y-105650001D02*
X187053100Y-109250001D01*
%TO.C,R611*%
X209060358Y-122822501D02*
X208585842Y-122822501D01*
X209060358Y-121777501D02*
X208585842Y-121777501D01*
%TO.C,R307*%
X228925600Y-122762743D02*
X228925600Y-123237259D01*
X227880600Y-122762743D02*
X227880600Y-123237259D01*
D14*
%TO.C,U204*%
X225304100Y-86535001D02*
G75*
G02*
X225177100Y-86535001I-63500J0D01*
G01*
X225177100Y-86535001D02*
G75*
G02*
X225304100Y-86535001I63500J0D01*
G01*
D13*
X227840600Y-88935001D02*
X225040600Y-88935001D01*
X227840600Y-86335001D02*
X227840600Y-88935001D01*
X225540600Y-86335001D02*
X227840600Y-86335001D01*
X225040600Y-88935001D02*
X225040600Y-86835001D01*
%TO.C,TP204*%
X199853100Y-84870001D02*
G75*
G02*
X198453100Y-84870001I-700000J0D01*
G01*
X198453100Y-84870001D02*
G75*
G02*
X199853100Y-84870001I700000J0D01*
G01*
%TO.C,C503*%
X228713100Y-91784421D02*
X228713100Y-92065581D01*
X227693100Y-91784421D02*
X227693100Y-92065581D01*
%TO.C,F301*%
X196503100Y-130250001D02*
X196503100Y-127650001D01*
X196503100Y-127650001D02*
X191703100Y-127650001D01*
X191703100Y-130250001D02*
X196503100Y-130250001D01*
X191703100Y-127650001D02*
X191703100Y-130250001D01*
%TO.C,C12*%
X208713100Y-84407837D02*
X208713100Y-84192165D01*
X207993100Y-84407837D02*
X207993100Y-84192165D01*
%TO.C,C14*%
X216295264Y-86110001D02*
X216510936Y-86110001D01*
X216295264Y-85390001D02*
X216510936Y-85390001D01*
%TO.C,L501*%
X224551036Y-93185001D02*
X225755164Y-93185001D01*
X224551036Y-90465001D02*
X225755164Y-90465001D01*
%TO.C,R702*%
X217865842Y-76322501D02*
X218340358Y-76322501D01*
X217865842Y-75277501D02*
X218340358Y-75277501D01*
%TO.C,R706*%
X214125600Y-81842743D02*
X214125600Y-82317259D01*
X213080600Y-81842743D02*
X213080600Y-82317259D01*
%TO.C,R15*%
X220293100Y-92900001D02*
X220293100Y-91900001D01*
X220293100Y-91900001D02*
X218393100Y-91900001D01*
X218393100Y-92900001D02*
X220293100Y-92900001D01*
X218393100Y-91900001D02*
X218393100Y-92900001D01*
%TO.C,C501*%
X203313100Y-98897837D02*
X203313100Y-98682165D01*
X202593100Y-98897837D02*
X202593100Y-98682165D01*
%TO.C,TP201*%
X188503100Y-83200001D02*
G75*
G02*
X187103100Y-83200001I-700000J0D01*
G01*
X187103100Y-83200001D02*
G75*
G02*
X188503100Y-83200001I700000J0D01*
G01*
%TO.C,X1*%
X204693100Y-83030001D02*
X207513100Y-83030001D01*
X204693100Y-80610001D02*
X204693100Y-83030001D01*
%TO.C,R204*%
X225803100Y-76850001D02*
X225803100Y-75850001D01*
X225803100Y-75850001D02*
X223903100Y-75850001D01*
X223903100Y-76850001D02*
X225803100Y-76850001D01*
X223903100Y-75850001D02*
X223903100Y-76850001D01*
%TO.C,U3*%
X215603100Y-79500001D02*
X214803100Y-79500001D01*
X215603100Y-78700001D02*
X215603100Y-79500001D01*
X215603100Y-62500001D02*
X215603100Y-63100001D01*
X215403100Y-79300001D02*
X202203100Y-79300001D01*
X215403100Y-62700001D02*
X215403100Y-79300001D01*
X214853100Y-62500001D02*
X215603100Y-62500001D01*
X202878100Y-62500001D02*
X202028100Y-62500001D01*
X202203100Y-79300001D02*
X202203100Y-62700001D01*
X202203100Y-68100001D02*
X215403100Y-68100001D01*
X202203100Y-62700001D02*
X215403100Y-62700001D01*
X202003100Y-79500001D02*
X202803100Y-79500001D01*
X202003100Y-78700001D02*
X202003100Y-79500001D01*
%TO.C,R304*%
X228805600Y-109777743D02*
X228805600Y-110252259D01*
X227760600Y-109777743D02*
X227760600Y-110252259D01*
%TO.C,C16*%
X216315264Y-97860001D02*
X216530936Y-97860001D01*
X216315264Y-97140001D02*
X216530936Y-97140001D01*
%TO.C,C23*%
X212963100Y-98682165D02*
X212963100Y-98897837D01*
X212243100Y-98682165D02*
X212243100Y-98897837D01*
%TO.C,R710*%
X200943100Y-79000001D02*
X200943100Y-78000001D01*
X200943100Y-78000001D02*
X199043100Y-78000001D01*
X199043100Y-79000001D02*
X200943100Y-79000001D01*
X199043100Y-78000001D02*
X199043100Y-79000001D01*
%TO.C,C5*%
X201380936Y-85410001D02*
X201165264Y-85410001D01*
X201380936Y-84690001D02*
X201165264Y-84690001D01*
%TO.C,J3*%
X220463100Y-126310001D02*
X219513100Y-126310001D01*
X220463100Y-125860001D02*
X220463100Y-126310001D01*
X220463100Y-122340001D02*
X220463100Y-121890001D01*
X220463100Y-121890001D02*
X213493100Y-121890001D01*
X219513100Y-126310001D02*
X219513100Y-127800001D01*
X213493100Y-126310001D02*
X214443100Y-126310001D01*
X213493100Y-125860001D02*
X213493100Y-126310001D01*
X213493100Y-121890001D02*
X213493100Y-122340001D01*
%TO.C,R1*%
X206003100Y-85050001D02*
X206003100Y-83150001D01*
X206003100Y-83150001D02*
X205003100Y-83150001D01*
X205003100Y-85050001D02*
X206003100Y-85050001D01*
X205003100Y-83150001D02*
X205003100Y-85050001D01*
%TO.C,D303*%
X210583100Y-120780001D02*
X210583100Y-117180001D01*
X210583100Y-117180001D02*
X206983100Y-117180001D01*
X206983100Y-120780001D02*
X210583100Y-120780001D01*
X206983100Y-117180001D02*
X206983100Y-120780001D01*
%TO.C,C18*%
X216295264Y-91810001D02*
X216510936Y-91810001D01*
X216295264Y-91090001D02*
X216510936Y-91090001D01*
%TO.C,C204*%
X188588100Y-93013749D02*
X188588100Y-93536253D01*
X187118100Y-93013749D02*
X187118100Y-93536253D01*
%TO.C,C203*%
X188913100Y-97013749D02*
X188913100Y-98436253D01*
X187093100Y-97013749D02*
X187093100Y-98436253D01*
%TO.C,U601*%
X226158100Y-108905001D02*
X225678100Y-108425001D01*
X226158100Y-108425001D01*
X226158100Y-108905001D01*
G36*
X226158100Y-108905001D02*
G01*
X225678100Y-108425001D01*
X226158100Y-108425001D01*
X226158100Y-108905001D01*
G37*
X229108100Y-107865001D02*
X229108100Y-104865001D01*
X225938100Y-104805001D02*
X226088100Y-104805001D01*
X225888100Y-107865001D02*
X225888100Y-104865001D01*
%TO.C,C504*%
X228938100Y-95386253D02*
X228938100Y-94863749D01*
X227468100Y-95386253D02*
X227468100Y-94863749D01*
%TO.C,R707*%
X199265842Y-75822501D02*
X199740358Y-75822501D01*
X199265842Y-74777501D02*
X199740358Y-74777501D01*
%TO.C,C302*%
X189914352Y-125510001D02*
X188491848Y-125510001D01*
X189914352Y-123690001D02*
X188491848Y-123690001D01*
%TO.C,D301*%
X191313100Y-127950001D02*
X191313100Y-125950001D01*
X191313100Y-127950001D02*
X187453100Y-127950001D01*
X191313100Y-125950001D02*
X187453100Y-125950001D01*
%TO.C,FB201*%
X201813100Y-81837879D02*
X201813100Y-82637123D01*
X200693100Y-81837879D02*
X200693100Y-82637123D01*
%TO.C,R5*%
X206603100Y-99740001D02*
X206603100Y-97840001D01*
X206603100Y-97840001D02*
X205603100Y-97840001D01*
X205603100Y-99740001D02*
X206603100Y-99740001D01*
X205603100Y-97840001D02*
X205603100Y-99740001D01*
%TO.C,R201*%
X193990358Y-92147501D02*
X193515842Y-92147501D01*
X193990358Y-91102501D02*
X193515842Y-91102501D01*
%TO.C,C301*%
X189864352Y-129935001D02*
X189341848Y-129935001D01*
X189864352Y-128465001D02*
X189341848Y-128465001D01*
%TO.C,R705*%
X217865842Y-79322501D02*
X218340358Y-79322501D01*
X217865842Y-78277501D02*
X218340358Y-78277501D01*
%TO.C,C610*%
X199643680Y-70310001D02*
X199362520Y-70310001D01*
X199643680Y-69290001D02*
X199362520Y-69290001D01*
%TO.C,C206*%
X194091848Y-88625001D02*
X194614352Y-88625001D01*
X194091848Y-87155001D02*
X194614352Y-87155001D01*
%TO.C,C202*%
X191213100Y-97013749D02*
X191213100Y-98436253D01*
X189393100Y-97013749D02*
X189393100Y-98436253D01*
%TO.C,C205*%
X194091848Y-86635001D02*
X194614352Y-86635001D01*
X194091848Y-85165001D02*
X194614352Y-85165001D01*
%TO.C,R305*%
X225925600Y-122762743D02*
X225925600Y-123237259D01*
X224880600Y-122762743D02*
X224880600Y-123237259D01*
%TO.C,C502*%
X204263100Y-98897837D02*
X204263100Y-98682165D01*
X203543100Y-98897837D02*
X203543100Y-98682165D01*
%TO.C,C211*%
X195763100Y-81713749D02*
X195763100Y-82236253D01*
X194293100Y-81713749D02*
X194293100Y-82236253D01*
%TO.C,C2*%
X208463100Y-81712165D02*
X208463100Y-81927837D01*
X207743100Y-81712165D02*
X207743100Y-81927837D01*
%TO.C,R8*%
X209603100Y-99740001D02*
X209603100Y-97840001D01*
X209603100Y-97840001D02*
X208603100Y-97840001D01*
X208603100Y-99740001D02*
X209603100Y-99740001D01*
X208603100Y-97840001D02*
X208603100Y-99740001D01*
%TO.C,R10*%
X212003100Y-99740001D02*
X212003100Y-97840001D01*
X212003100Y-97840001D02*
X211003100Y-97840001D01*
X211003100Y-99740001D02*
X212003100Y-99740001D01*
X211003100Y-97840001D02*
X211003100Y-99740001D01*
%TO.C,C20*%
X216295264Y-90860001D02*
X216510936Y-90860001D01*
X216295264Y-90140001D02*
X216510936Y-90140001D01*
%TO.C,C606*%
X219473100Y-104444421D02*
X219473100Y-104725581D01*
X218453100Y-104444421D02*
X218453100Y-104725581D01*
%TO.C,C24*%
X201380936Y-88310001D02*
X201165264Y-88310001D01*
X201380936Y-87590001D02*
X201165264Y-87590001D01*
%TO.C,R608*%
X192638100Y-103672937D02*
X192638100Y-104127065D01*
X191168100Y-103672937D02*
X191168100Y-104127065D01*
D14*
%TO.C,U202*%
X187151600Y-76425001D02*
G75*
G02*
X187024600Y-76425001I-63500J0D01*
G01*
X187024600Y-76425001D02*
G75*
G02*
X187151600Y-76425001I63500J0D01*
G01*
D13*
X191288100Y-79825001D02*
X191288100Y-76225001D01*
X191288100Y-76225001D02*
X187488100Y-76225001D01*
X186888100Y-79825001D02*
X191288100Y-79825001D01*
X186888100Y-76825001D02*
X186888100Y-79825001D01*
%TO.C,C7*%
X201380936Y-91760001D02*
X201165264Y-91760001D01*
X201380936Y-91040001D02*
X201165264Y-91040001D01*
%TO.C,C15*%
X209663100Y-84407837D02*
X209663100Y-84192165D01*
X208943100Y-84407837D02*
X208943100Y-84192165D01*
%TO.C,Q602*%
X194353100Y-118200001D02*
X186953100Y-118200001D01*
X194353100Y-109200001D02*
X194353100Y-118200001D01*
X186953100Y-118200001D02*
X186953100Y-109200001D01*
X186953100Y-109200001D02*
X194353100Y-109200001D01*
%TO.C,R306*%
X227425600Y-122762743D02*
X227425600Y-123237259D01*
X226380600Y-122762743D02*
X226380600Y-123237259D01*
%TO.C,R709*%
X200943100Y-78000001D02*
X200943100Y-77000001D01*
X200943100Y-77000001D02*
X199043100Y-77000001D01*
X199043100Y-78000001D02*
X200943100Y-78000001D01*
X199043100Y-77000001D02*
X199043100Y-78000001D01*
%TO.C,C8*%
X216295264Y-85160001D02*
X216510936Y-85160001D01*
X216295264Y-84440001D02*
X216510936Y-84440001D01*
%TO.C,TP203*%
X223678100Y-82800001D02*
G75*
G02*
X222278100Y-82800001I-700000J0D01*
G01*
X222278100Y-82800001D02*
G75*
G02*
X223678100Y-82800001I700000J0D01*
G01*
%TO.C,C201*%
X193513100Y-97013749D02*
X193513100Y-98436253D01*
X191693100Y-97013749D02*
X191693100Y-98436253D01*
%TO.C,TP301*%
X199813100Y-118170001D02*
G75*
G02*
X198413100Y-118170001I-700000J0D01*
G01*
X198413100Y-118170001D02*
G75*
G02*
X199813100Y-118170001I700000J0D01*
G01*
%TO.C,TP501*%
X228503100Y-99365001D02*
G75*
G02*
X227103100Y-99365001I-700000J0D01*
G01*
X227103100Y-99365001D02*
G75*
G02*
X228503100Y-99365001I700000J0D01*
G01*
%TO.C,C1*%
X204463100Y-81927837D02*
X204463100Y-81712165D01*
X203743100Y-81927837D02*
X203743100Y-81712165D01*
%TO.C,C702*%
X199643680Y-71810001D02*
X199362520Y-71810001D01*
X199643680Y-70790001D02*
X199362520Y-70790001D01*
%TO.C,C605*%
X230503100Y-107230581D02*
X230503100Y-106949421D01*
X229483100Y-107230581D02*
X229483100Y-106949421D01*
%TO.C,R604*%
X225693100Y-105640001D02*
X225693100Y-102640001D01*
X225693100Y-102640001D02*
X224093100Y-102640001D01*
X224093100Y-105640001D02*
X225693100Y-105640001D01*
X224093100Y-102640001D02*
X224093100Y-105640001D01*
%TO.C,U501*%
X223673100Y-93620001D02*
X223433100Y-93290001D01*
X223913100Y-93290001D01*
X223673100Y-93620001D01*
G36*
X223673100Y-93620001D02*
G01*
X223433100Y-93290001D01*
X223913100Y-93290001D01*
X223673100Y-93620001D01*
G37*
X226033100Y-96690001D02*
X224213100Y-96690001D01*
X226033100Y-96640001D02*
X226033100Y-96690001D01*
X226033100Y-93570001D02*
X226033100Y-93620001D01*
X224213100Y-96690001D02*
X224213100Y-96640001D01*
X224213100Y-93620001D02*
X224213100Y-93570001D01*
X224213100Y-93570001D02*
X226033100Y-93570001D01*
D11*
%TO.C,U603*%
X207766600Y-130050001D02*
G75*
G02*
X207639600Y-130050001I-63500J0D01*
G01*
X207639600Y-130050001D02*
G75*
G02*
X207766600Y-130050001I63500J0D01*
G01*
D13*
X210103100Y-130250001D02*
X210103100Y-126850001D01*
X210103100Y-126850001D02*
X207503100Y-126850001D01*
X208003100Y-130250001D02*
X210103100Y-130250001D01*
X207503100Y-126850001D02*
X207503100Y-129750001D01*
%TO.C,R11*%
X214103100Y-99730001D02*
X214103100Y-97830001D01*
X214103100Y-97830001D02*
X213103100Y-97830001D01*
X213103100Y-99730001D02*
X214103100Y-99730001D01*
X213103100Y-97830001D02*
X213103100Y-99730001D01*
%TO.C,C601*%
X228287520Y-120260001D02*
X228568680Y-120260001D01*
X228287520Y-119240001D02*
X228568680Y-119240001D01*
%TO.C,C218*%
X229038100Y-87484421D02*
X229038100Y-87765581D01*
X228018100Y-87484421D02*
X228018100Y-87765581D01*
%TO.C,TP303*%
X191383100Y-120150001D02*
G75*
G02*
X189983100Y-120150001I-700000J0D01*
G01*
X189983100Y-120150001D02*
G75*
G02*
X191383100Y-120150001I700000J0D01*
G01*
%TO.C,R205*%
X223525600Y-80537259D02*
X223525600Y-80062743D01*
X222480600Y-80537259D02*
X222480600Y-80062743D01*
%TO.C,C11*%
X210613100Y-84407837D02*
X210613100Y-84192165D01*
X209893100Y-84407837D02*
X209893100Y-84192165D01*
%TO.C,C216*%
X199043680Y-82047501D02*
X198762520Y-82047501D01*
X199043680Y-81027501D02*
X198762520Y-81027501D01*
%TO.C,C609*%
X208637520Y-126560001D02*
X208918680Y-126560001D01*
X208637520Y-125540001D02*
X208918680Y-125540001D01*
%TO.C,R606*%
X195625600Y-103912743D02*
X195625600Y-104387259D01*
X194580600Y-103912743D02*
X194580600Y-104387259D01*
%TO.C,R610*%
X208585842Y-124312501D02*
X209060358Y-124312501D01*
X208585842Y-123267501D02*
X209060358Y-123267501D01*
%TO.C,R603*%
X225190842Y-118772501D02*
X225665358Y-118772501D01*
X225190842Y-117727501D02*
X225665358Y-117727501D01*
%TO.C,C3*%
X201380936Y-94110001D02*
X201165264Y-94110001D01*
X201380936Y-93390001D02*
X201165264Y-93390001D01*
%TO.C,R612*%
X215650600Y-81842743D02*
X215650600Y-82317259D01*
X214605600Y-81842743D02*
X214605600Y-82317259D01*
%TO.C,C215*%
X225750600Y-82538749D02*
X225750600Y-83061253D01*
X224280600Y-82538749D02*
X224280600Y-83061253D01*
%TO.C,C217*%
X199043680Y-83547501D02*
X198762520Y-83547501D01*
X199043680Y-82527501D02*
X198762520Y-82527501D01*
%TO.C,R202*%
X193525600Y-93637743D02*
X193525600Y-94112259D01*
X192480600Y-93637743D02*
X192480600Y-94112259D01*
%TO.C,R12*%
X220293100Y-90600001D02*
X220293100Y-89600001D01*
X220293100Y-89600001D02*
X218393100Y-89600001D01*
X218393100Y-90600001D02*
X220293100Y-90600001D01*
X218393100Y-89600001D02*
X218393100Y-90600001D01*
%TO.C,J5*%
X196263100Y-72010001D02*
X194813100Y-72010001D01*
X196263100Y-70260001D02*
X196263100Y-72010001D01*
X196263100Y-68040001D02*
X196263100Y-67490001D01*
X196263100Y-67490001D02*
X187243100Y-67490001D01*
X194813100Y-72010001D02*
X194813100Y-72900001D01*
X187243100Y-72010001D02*
X188693100Y-72010001D01*
X187243100Y-70260001D02*
X187243100Y-72010001D01*
X187243100Y-67490001D02*
X187243100Y-68040001D01*
%TO.C,R203*%
X192965842Y-127422501D02*
X193440358Y-127422501D01*
X192965842Y-126377501D02*
X193440358Y-126377501D01*
%TO.C,R4*%
X205403100Y-99740001D02*
X205403100Y-97840001D01*
X205403100Y-97840001D02*
X204403100Y-97840001D01*
X204403100Y-99740001D02*
X205403100Y-99740001D01*
X204403100Y-97840001D02*
X204403100Y-99740001D01*
%TO.C,C207*%
X194091848Y-90585001D02*
X194614352Y-90585001D01*
X194091848Y-89115001D02*
X194614352Y-89115001D01*
%TO.C,R2*%
X207003100Y-85050001D02*
X207003100Y-83150001D01*
X207003100Y-83150001D02*
X206003100Y-83150001D01*
X206003100Y-85050001D02*
X207003100Y-85050001D01*
X206003100Y-83150001D02*
X206003100Y-85050001D01*
%TO.C,U201*%
X189043100Y-94787501D02*
X188713100Y-95027501D01*
X188713100Y-94547501D01*
X189043100Y-94787501D01*
G36*
X189043100Y-94787501D02*
G01*
X188713100Y-95027501D01*
X188713100Y-94547501D01*
X189043100Y-94787501D01*
G37*
X192113100Y-94247501D02*
X192063100Y-94247501D01*
X192113100Y-92427501D02*
X192113100Y-94247501D01*
X192063100Y-92427501D02*
X192113100Y-92427501D01*
X189043100Y-94247501D02*
X188993100Y-94247501D01*
X188993100Y-94247501D02*
X188993100Y-92427501D01*
X188993100Y-92427501D02*
X189043100Y-92427501D01*
%TO.C,L203*%
X225340321Y-80760001D02*
X225665879Y-80760001D01*
X225340321Y-79740001D02*
X225665879Y-79740001D01*
%TO.C,C209*%
X189737520Y-76085001D02*
X190018680Y-76085001D01*
X189737520Y-75065001D02*
X190018680Y-75065001D01*
%TO.C,C214*%
X227738100Y-82538749D02*
X227738100Y-83061253D01*
X226268100Y-82538749D02*
X226268100Y-83061253D01*
%TO.C,C212*%
X227341848Y-77735001D02*
X227864352Y-77735001D01*
X227341848Y-76265001D02*
X227864352Y-76265001D01*
%TO.C,R501*%
X227590842Y-98097501D02*
X228065358Y-98097501D01*
X227590842Y-97052501D02*
X228065358Y-97052501D01*
%TO.C,C19*%
X216295264Y-93710001D02*
X216510936Y-93710001D01*
X216295264Y-92990001D02*
X216510936Y-92990001D01*
%TO.C,C604*%
X230503100Y-103949421D02*
X230503100Y-104230581D01*
X229483100Y-103949421D02*
X229483100Y-104230581D01*
%TO.C,C21*%
X216295264Y-88960001D02*
X216510936Y-88960001D01*
X216295264Y-88240001D02*
X216510936Y-88240001D01*
%TO.C,R17*%
X217373100Y-96050001D02*
X217373100Y-95050001D01*
X217373100Y-95050001D02*
X215473100Y-95050001D01*
X215473100Y-96050001D02*
X217373100Y-96050001D01*
X215473100Y-95050001D02*
X215473100Y-96050001D01*
%TO.C,R607*%
X194125600Y-104387259D02*
X194125600Y-103912743D01*
X193080600Y-104387259D02*
X193080600Y-103912743D01*
%TD*%
%LPC*%
D15*
%TO.C,U1*%
X211503100Y-93900001D03*
X211503100Y-91200001D03*
X211503100Y-88500001D03*
X208803100Y-93900001D03*
X208803100Y-91200001D03*
X208803100Y-88500001D03*
X206103100Y-93900001D03*
X206103100Y-91200001D03*
X206103100Y-88500001D03*
D16*
X204428100Y-86325001D03*
X204778100Y-86325001D03*
X205128100Y-86325001D03*
X205478100Y-86325001D03*
X205828100Y-86325001D03*
X206178100Y-86325001D03*
X206528100Y-86325001D03*
X206878100Y-86325001D03*
X207228100Y-86325001D03*
X207578100Y-86325001D03*
X207928100Y-86325001D03*
X208278100Y-86325001D03*
X208628100Y-86325001D03*
X208978100Y-86325001D03*
X209328100Y-86325001D03*
X209678100Y-86325001D03*
X210028100Y-86325001D03*
X210378100Y-86325001D03*
X210728100Y-86325001D03*
X211078100Y-86325001D03*
X211428100Y-86325001D03*
X211778100Y-86325001D03*
X212128100Y-86325001D03*
X212478100Y-86325001D03*
X212828100Y-86325001D03*
X213178100Y-86325001D03*
D17*
X213678100Y-86825001D03*
X213678100Y-87175001D03*
X213678100Y-87525001D03*
X213678100Y-87875001D03*
X213678100Y-88225001D03*
X213678100Y-88575001D03*
X213678100Y-88925001D03*
X213678100Y-89275001D03*
X213678100Y-89625001D03*
X213678100Y-89975001D03*
X213678100Y-90325001D03*
X213678100Y-90675001D03*
X213678100Y-91025001D03*
X213678100Y-91375001D03*
X213678100Y-91725001D03*
X213678100Y-92075001D03*
X213678100Y-92425001D03*
X213678100Y-92775001D03*
X213678100Y-93125001D03*
X213678100Y-93475001D03*
X213678100Y-93825001D03*
X213678100Y-94175001D03*
X213678100Y-94525001D03*
X213678100Y-94875001D03*
X213678100Y-95225001D03*
X213678100Y-95575001D03*
D16*
X213178100Y-96075001D03*
X212828100Y-96075001D03*
X212478100Y-96075001D03*
X212128100Y-96075001D03*
X211778100Y-96075001D03*
X211428100Y-96075001D03*
X211078100Y-96075001D03*
X210728100Y-96075001D03*
X210378100Y-96075001D03*
X210028100Y-96075001D03*
X209678100Y-96075001D03*
X209328100Y-96075001D03*
X208978100Y-96075001D03*
X208628100Y-96075001D03*
X208278100Y-96075001D03*
X207928100Y-96075001D03*
X207578100Y-96075001D03*
X207228100Y-96075001D03*
X206878100Y-96075001D03*
X206528100Y-96075001D03*
X206178100Y-96075001D03*
X205828100Y-96075001D03*
X205478100Y-96075001D03*
X205128100Y-96075001D03*
X204778100Y-96075001D03*
X204428100Y-96075001D03*
D17*
X203928100Y-95575001D03*
X203928100Y-95225001D03*
X203928100Y-94875001D03*
X203928100Y-94525001D03*
X203928100Y-94175001D03*
X203928100Y-93825001D03*
X203928100Y-93475001D03*
X203928100Y-93125001D03*
X203928100Y-92775001D03*
X203928100Y-92425001D03*
X203928100Y-92075001D03*
X203928100Y-91725001D03*
X203928100Y-91375001D03*
X203928100Y-91025001D03*
X203928100Y-90675001D03*
X203928100Y-90325001D03*
X203928100Y-89975001D03*
X203928100Y-89625001D03*
X203928100Y-89275001D03*
X203928100Y-88925001D03*
X203928100Y-88575001D03*
X203928100Y-88225001D03*
X203928100Y-87875001D03*
X203928100Y-87525001D03*
X203928100Y-87175001D03*
X203928100Y-86825001D03*
%TD*%
D18*
%TO.C,R605*%
X228343100Y-103440001D03*
X226693100Y-103440001D03*
%TD*%
D19*
%TO.C,C208*%
X190553100Y-80800001D03*
X188653100Y-80800001D03*
%TD*%
D20*
%TO.C,C213*%
X228178100Y-78750001D03*
X226628100Y-78750001D03*
%TD*%
D18*
%TO.C,R703*%
X218928100Y-74300001D03*
X217278100Y-74300001D03*
%TD*%
D21*
%TO.C,R16*%
X219853100Y-93400001D03*
X218833100Y-93400001D03*
%TD*%
D22*
%TO.C,U203*%
X224353100Y-77550001D03*
X224853100Y-77550001D03*
X225353100Y-77550001D03*
X225353100Y-78975001D03*
X224853100Y-78975001D03*
X224353100Y-78975001D03*
%TD*%
D18*
%TO.C,R701*%
X218928100Y-77300001D03*
X217278100Y-77300001D03*
%TD*%
D23*
%TO.C,R3*%
X196143100Y-93700001D03*
X197163100Y-93700001D03*
%TD*%
D24*
%TO.C,L202*%
X195178100Y-78025001D03*
X192178100Y-78025001D03*
%TD*%
D25*
%TO.C,R308*%
X229503100Y-126175001D03*
X229503100Y-127825001D03*
%TD*%
D26*
%TO.C,R7*%
X208103100Y-98280001D03*
X208103100Y-99300001D03*
%TD*%
D27*
%TO.C,U2*%
X198853100Y-96995001D03*
D28*
X201553100Y-95090001D03*
X201553100Y-96360001D03*
X201553100Y-97630001D03*
X201553100Y-98900001D03*
X196153100Y-98900001D03*
X196153100Y-97630001D03*
X196153100Y-96360001D03*
X196153100Y-95090001D03*
%TD*%
D23*
%TO.C,R18*%
X215913100Y-96550001D03*
X216933100Y-96550001D03*
%TD*%
D29*
%TO.C,J1*%
X214343100Y-104550000D03*
X203263100Y-104550000D03*
D30*
X213553100Y-101900000D03*
X213053100Y-101900000D03*
X212553100Y-101900000D03*
X212053100Y-101900000D03*
X211553100Y-101900000D03*
X211053100Y-101900000D03*
X210553100Y-101900000D03*
X210053100Y-101900000D03*
X209553100Y-101900000D03*
X209053100Y-101900000D03*
X208553100Y-101900000D03*
X208053100Y-101900000D03*
X207553100Y-101900000D03*
X207053100Y-101900000D03*
X206553100Y-101900000D03*
X206053100Y-101900000D03*
X205553100Y-101900000D03*
X205053100Y-101900000D03*
X204553100Y-101900000D03*
X204053100Y-101900000D03*
%TD*%
D18*
%TO.C,R601*%
X226253100Y-119750001D03*
X224603100Y-119750001D03*
%TD*%
D31*
%TO.C,C219*%
X224328100Y-88365001D03*
X224328100Y-86815001D03*
%TD*%
D32*
%TO.C,R609*%
X190003100Y-102987501D03*
X190003100Y-104812501D03*
%TD*%
D33*
%TO.C,L201*%
X189753100Y-85525001D03*
X189753100Y-90025001D03*
%TD*%
D34*
%TO.C,TP302*%
X202273100Y-118340001D03*
%TD*%
D35*
%TO.C,J4*%
X221903100Y-69175001D03*
X229803100Y-69175001D03*
D36*
X223353100Y-72300001D03*
X224353100Y-72300001D03*
X225353100Y-72300001D03*
X226353100Y-72300001D03*
X227353100Y-72300001D03*
X228353100Y-72300001D03*
%TD*%
D21*
%TO.C,R14*%
X201783100Y-86950001D03*
X200763100Y-86950001D03*
%TD*%
D37*
%TO.C,C17*%
X216883100Y-89550001D03*
X215923100Y-89550001D03*
%TD*%
D26*
%TO.C,R9*%
X210503100Y-98280001D03*
X210503100Y-99300001D03*
%TD*%
D38*
%TO.C,R301*%
X220863100Y-108910001D03*
X220863100Y-107260001D03*
%TD*%
D39*
%TO.C,C210*%
X193028100Y-82925001D03*
X193028100Y-81025001D03*
%TD*%
D40*
%TO.C,C6*%
X200793100Y-88900001D03*
X201753100Y-88900001D03*
%TD*%
%TO.C,C13*%
X200793100Y-92350001D03*
X201753100Y-92350001D03*
%TD*%
%TO.C,C4*%
X200793100Y-86000001D03*
X201753100Y-86000001D03*
%TD*%
D37*
%TO.C,C9*%
X216883100Y-86700001D03*
X215923100Y-86700001D03*
%TD*%
D18*
%TO.C,R602*%
X226253100Y-116750001D03*
X224603100Y-116750001D03*
%TD*%
D34*
%TO.C,TP202*%
X197063100Y-78050001D03*
%TD*%
D25*
%TO.C,R708*%
X212003100Y-81255001D03*
X212003100Y-82905001D03*
%TD*%
D41*
%TO.C,C303*%
X187728100Y-122300001D03*
X190678100Y-122300001D03*
%TD*%
D42*
%TO.C,C607*%
X188053100Y-102950001D03*
X188053100Y-104850001D03*
%TD*%
D43*
%TO.C,D302*%
X227953100Y-126350001D03*
X227953100Y-127300001D03*
X227953100Y-128250001D03*
X225753100Y-128250001D03*
X225753100Y-127300001D03*
X225753100Y-126350001D03*
%TD*%
D44*
%TO.C,C701*%
X198728100Y-73800001D03*
X200278100Y-73800001D03*
%TD*%
D26*
%TO.C,R6*%
X207103100Y-98280001D03*
X207103100Y-99300001D03*
%TD*%
D37*
%TO.C,C10*%
X216883100Y-92400001D03*
X215923100Y-92400001D03*
%TD*%
D38*
%TO.C,R302*%
X222363100Y-108910001D03*
X222363100Y-107260001D03*
%TD*%
D23*
%TO.C,R13*%
X218833100Y-91100001D03*
X219853100Y-91100001D03*
%TD*%
D38*
%TO.C,R303*%
X226773100Y-110840001D03*
X226773100Y-109190001D03*
%TD*%
D18*
%TO.C,R704*%
X218928100Y-72800001D03*
X217278100Y-72800001D03*
%TD*%
D20*
%TO.C,C603*%
X229203100Y-118250001D03*
X227653100Y-118250001D03*
%TD*%
D31*
%TO.C,C608*%
X216628100Y-82855001D03*
X216628100Y-81305001D03*
%TD*%
D45*
%TO.C,R502*%
X225553100Y-97775001D03*
X223728100Y-97775001D03*
%TD*%
D46*
%TO.C,Q601*%
X193453100Y-107450001D03*
X191453100Y-108400001D03*
X191453100Y-106500001D03*
%TD*%
D37*
%TO.C,C22*%
X216883100Y-87650001D03*
X215923100Y-87650001D03*
%TD*%
D25*
%TO.C,R206*%
X223003100Y-76475001D03*
X223003100Y-78125001D03*
%TD*%
D47*
%TO.C,J2*%
X195003100Y-124100001D03*
X205103100Y-124100001D03*
D48*
X197553100Y-127000001D03*
X198803100Y-127000001D03*
X200053100Y-127000001D03*
X201303100Y-127000001D03*
X202553100Y-127000001D03*
%TD*%
D20*
%TO.C,C602*%
X229203100Y-116750001D03*
X227653100Y-116750001D03*
%TD*%
D49*
%TO.C,U602*%
X220563100Y-103485001D03*
X222463100Y-103485001D03*
X222463100Y-105685001D03*
X221513100Y-105685001D03*
X220563100Y-105685001D03*
%TD*%
D46*
%TO.C,DZ601*%
X189853100Y-107450001D03*
X187853100Y-108400001D03*
X187853100Y-106500001D03*
%TD*%
D50*
%TO.C,R611*%
X207998100Y-122300001D03*
X209648100Y-122300001D03*
%TD*%
D38*
%TO.C,R307*%
X228403100Y-123825001D03*
X228403100Y-122175001D03*
%TD*%
D51*
%TO.C,U204*%
X226440600Y-87635001D03*
D52*
X227328100Y-86985001D03*
X227328100Y-87635001D03*
X227328100Y-88285001D03*
X225553100Y-88285001D03*
X225553100Y-87635001D03*
X225553100Y-86985001D03*
%TD*%
D34*
%TO.C,TP204*%
X199153100Y-84870001D03*
%TD*%
D31*
%TO.C,C503*%
X228203100Y-92700001D03*
X228203100Y-91150001D03*
%TD*%
D53*
%TO.C,F301*%
X192703100Y-128950001D03*
X195503100Y-128950001D03*
%TD*%
D54*
%TO.C,C12*%
X208353100Y-83820001D03*
X208353100Y-84780001D03*
%TD*%
D37*
%TO.C,C14*%
X216883100Y-85750001D03*
X215923100Y-85750001D03*
%TD*%
D55*
%TO.C,L501*%
X226553100Y-91825001D03*
X223753100Y-91825001D03*
%TD*%
D18*
%TO.C,R702*%
X218928100Y-75800001D03*
X217278100Y-75800001D03*
%TD*%
D38*
%TO.C,R706*%
X213603100Y-82905001D03*
X213603100Y-81255001D03*
%TD*%
D21*
%TO.C,R15*%
X219853100Y-92400001D03*
X218833100Y-92400001D03*
%TD*%
D54*
%TO.C,C501*%
X202953100Y-98310001D03*
X202953100Y-99270001D03*
%TD*%
D34*
%TO.C,TP201*%
X187803100Y-83200001D03*
%TD*%
D46*
%TO.C,X1*%
X205403100Y-81270001D03*
X206803100Y-81270001D03*
X206803100Y-82370001D03*
X205403100Y-82370001D03*
%TD*%
D21*
%TO.C,R204*%
X225363100Y-76350001D03*
X224343100Y-76350001D03*
%TD*%
D56*
%TO.C,U3*%
X202853100Y-68750001D03*
X202853100Y-78650001D03*
X214753100Y-78650001D03*
X214753100Y-68750001D03*
D57*
X210778100Y-75675001D03*
X210778100Y-73700001D03*
X210778100Y-71725001D03*
X208803100Y-75675001D03*
X208803100Y-73700001D03*
X208803100Y-71725001D03*
X206828100Y-75675001D03*
X206828100Y-73700001D03*
D58*
X206828100Y-71725001D03*
D59*
X204003100Y-68800001D03*
X204803100Y-68800001D03*
X205603100Y-68800001D03*
X206403100Y-68800001D03*
X207203100Y-68800001D03*
X208003100Y-68800001D03*
X208803100Y-68800001D03*
X209603100Y-68800001D03*
X210403100Y-68800001D03*
X211203100Y-68800001D03*
X212003100Y-68800001D03*
X212803100Y-68800001D03*
X213603100Y-68800001D03*
D60*
X214703100Y-69700001D03*
X214703100Y-70500001D03*
X214703100Y-71300001D03*
X214703100Y-72100001D03*
X214703100Y-72900001D03*
X214703100Y-73700001D03*
X214703100Y-74500001D03*
X214703100Y-75300001D03*
X214703100Y-76100001D03*
X214703100Y-76900001D03*
X214703100Y-77700001D03*
D59*
X213603100Y-78600001D03*
X212803100Y-78600001D03*
X212003100Y-78600001D03*
X211203100Y-78600001D03*
X210403100Y-78600001D03*
X209603100Y-78600001D03*
X208803100Y-78600001D03*
X208003100Y-78600001D03*
X207203100Y-78600001D03*
X206403100Y-78600001D03*
X205603100Y-78600001D03*
X204803100Y-78600001D03*
X204003100Y-78600001D03*
D60*
X202903100Y-77700001D03*
X202903100Y-76900001D03*
X202903100Y-76100001D03*
X202903100Y-75300001D03*
X202903100Y-74500001D03*
X202903100Y-73700001D03*
X202903100Y-72900001D03*
X202903100Y-72100001D03*
X202903100Y-71300001D03*
X202903100Y-70500001D03*
X202903100Y-69700001D03*
%TD*%
D38*
%TO.C,R304*%
X228283100Y-110840001D03*
X228283100Y-109190001D03*
%TD*%
D37*
%TO.C,C16*%
X216903100Y-97500001D03*
X215943100Y-97500001D03*
%TD*%
D61*
%TO.C,C23*%
X212603100Y-99270001D03*
X212603100Y-98310001D03*
%TD*%
D21*
%TO.C,R710*%
X200503100Y-78500001D03*
X199483100Y-78500001D03*
%TD*%
D40*
%TO.C,C5*%
X200793100Y-85050001D03*
X201753100Y-85050001D03*
%TD*%
D47*
%TO.C,J3*%
X212553100Y-124100001D03*
X221403100Y-124100001D03*
D48*
X215103100Y-127000001D03*
X216353100Y-127000001D03*
X217603100Y-127000001D03*
X218853100Y-127000001D03*
%TD*%
D26*
%TO.C,R1*%
X205503100Y-83590001D03*
X205503100Y-84610001D03*
%TD*%
D62*
%TO.C,D303*%
X207783100Y-118980001D03*
X209783100Y-118030001D03*
X209783100Y-119930001D03*
%TD*%
D37*
%TO.C,C18*%
X216883100Y-91450001D03*
X215923100Y-91450001D03*
%TD*%
D39*
%TO.C,C204*%
X187853100Y-94225001D03*
X187853100Y-92325001D03*
%TD*%
D63*
%TO.C,C203*%
X188003100Y-99200001D03*
X188003100Y-96250001D03*
%TD*%
D64*
%TO.C,U601*%
X227498100Y-106365001D03*
D65*
X226523100Y-104815001D03*
X227173100Y-104815001D03*
X227823100Y-104815001D03*
X228473100Y-104815001D03*
X228473100Y-107915001D03*
X227823100Y-107915001D03*
X227173100Y-107915001D03*
X226523100Y-107915001D03*
%TD*%
D42*
%TO.C,C504*%
X228203100Y-94175001D03*
X228203100Y-96075001D03*
%TD*%
D18*
%TO.C,R707*%
X200328100Y-75300001D03*
X198678100Y-75300001D03*
%TD*%
D41*
%TO.C,C302*%
X187728100Y-124600001D03*
X190678100Y-124600001D03*
%TD*%
D66*
%TO.C,D301*%
X187703100Y-126950001D03*
X190503100Y-126950001D03*
%TD*%
D67*
%TO.C,FB201*%
X201253100Y-83300001D03*
X201253100Y-81175001D03*
%TD*%
D26*
%TO.C,R5*%
X206103100Y-98280001D03*
X206103100Y-99300001D03*
%TD*%
D50*
%TO.C,R201*%
X192928100Y-91625001D03*
X194578100Y-91625001D03*
%TD*%
D68*
%TO.C,C301*%
X188653100Y-129200001D03*
X190553100Y-129200001D03*
%TD*%
D18*
%TO.C,R705*%
X218928100Y-78800001D03*
X217278100Y-78800001D03*
%TD*%
D44*
%TO.C,C610*%
X198728100Y-69800001D03*
X200278100Y-69800001D03*
%TD*%
D19*
%TO.C,C206*%
X195303100Y-87890001D03*
X193403100Y-87890001D03*
%TD*%
D63*
%TO.C,C202*%
X190303100Y-99200001D03*
X190303100Y-96250001D03*
%TD*%
D19*
%TO.C,C205*%
X195303100Y-85900001D03*
X193403100Y-85900001D03*
%TD*%
D38*
%TO.C,R305*%
X225403100Y-123825001D03*
X225403100Y-122175001D03*
%TD*%
D54*
%TO.C,C502*%
X203903100Y-98310001D03*
X203903100Y-99270001D03*
%TD*%
D39*
%TO.C,C211*%
X195028100Y-82925001D03*
X195028100Y-81025001D03*
%TD*%
D61*
%TO.C,C2*%
X208103100Y-82300001D03*
X208103100Y-81340001D03*
%TD*%
D26*
%TO.C,R8*%
X209103100Y-98280001D03*
X209103100Y-99300001D03*
%TD*%
%TO.C,R10*%
X211503100Y-98280001D03*
X211503100Y-99300001D03*
%TD*%
D37*
%TO.C,C20*%
X216883100Y-90500001D03*
X215923100Y-90500001D03*
%TD*%
D31*
%TO.C,C606*%
X218963100Y-105360001D03*
X218963100Y-103810001D03*
%TD*%
D40*
%TO.C,C24*%
X200793100Y-87950001D03*
X201753100Y-87950001D03*
%TD*%
D69*
%TO.C,R608*%
X191903100Y-104812501D03*
X191903100Y-102987501D03*
%TD*%
D70*
%TO.C,U202*%
X190398100Y-77075001D03*
X190398100Y-78025001D03*
X190398100Y-78975001D03*
X187778100Y-78975001D03*
X187778100Y-78025001D03*
X187778100Y-77075001D03*
%TD*%
D40*
%TO.C,C7*%
X200793100Y-91400001D03*
X201753100Y-91400001D03*
%TD*%
D54*
%TO.C,C15*%
X209303100Y-83820001D03*
X209303100Y-84780001D03*
%TD*%
D71*
%TO.C,Q602*%
X192953100Y-116850001D03*
D72*
X190653100Y-110550001D03*
D71*
X190653100Y-116850001D03*
X188353100Y-116850001D03*
%TD*%
D38*
%TO.C,R306*%
X226903100Y-123825001D03*
X226903100Y-122175001D03*
%TD*%
D21*
%TO.C,R709*%
X200503100Y-77500001D03*
X199483100Y-77500001D03*
%TD*%
D37*
%TO.C,C8*%
X216883100Y-84800001D03*
X215923100Y-84800001D03*
%TD*%
D34*
%TO.C,TP203*%
X222978100Y-82800001D03*
%TD*%
D63*
%TO.C,C201*%
X192603100Y-99200001D03*
X192603100Y-96250001D03*
%TD*%
D34*
%TO.C,TP301*%
X199113100Y-118170001D03*
%TD*%
%TO.C,TP501*%
X227803100Y-99365001D03*
%TD*%
D54*
%TO.C,C1*%
X204103100Y-81340001D03*
X204103100Y-82300001D03*
%TD*%
D44*
%TO.C,C702*%
X198728100Y-71300001D03*
X200278100Y-71300001D03*
%TD*%
D73*
%TO.C,C605*%
X229993100Y-106315001D03*
X229993100Y-107865001D03*
%TD*%
D38*
%TO.C,R604*%
X224893100Y-104965001D03*
X224893100Y-103315001D03*
%TD*%
D74*
%TO.C,U501*%
X226260600Y-94180001D03*
X226260600Y-95130001D03*
X226260600Y-96080001D03*
X223985600Y-96080001D03*
X223985600Y-95130001D03*
X223985600Y-94180001D03*
%TD*%
D75*
%TO.C,U603*%
X208803100Y-128550001D03*
D76*
X208153100Y-127500001D03*
X208803100Y-127500001D03*
X209453100Y-127500001D03*
X209453100Y-129600001D03*
X208803100Y-129600001D03*
X208153100Y-129600001D03*
%TD*%
D77*
%TO.C,R11*%
X213603100Y-99290001D03*
X213603100Y-98270001D03*
%TD*%
D20*
%TO.C,C601*%
X229203100Y-119750001D03*
X227653100Y-119750001D03*
%TD*%
D31*
%TO.C,C218*%
X228528100Y-88400001D03*
X228528100Y-86850001D03*
%TD*%
D34*
%TO.C,TP303*%
X190683100Y-120150001D03*
%TD*%
D25*
%TO.C,R205*%
X223003100Y-79475001D03*
X223003100Y-81125001D03*
%TD*%
D54*
%TO.C,C11*%
X210253100Y-83820001D03*
X210253100Y-84780001D03*
%TD*%
D44*
%TO.C,C216*%
X198128100Y-81537501D03*
X199678100Y-81537501D03*
%TD*%
D20*
%TO.C,C609*%
X209553100Y-126050001D03*
X208003100Y-126050001D03*
%TD*%
D38*
%TO.C,R606*%
X195103100Y-104975001D03*
X195103100Y-103325001D03*
%TD*%
D18*
%TO.C,R610*%
X209648100Y-123790001D03*
X207998100Y-123790001D03*
%TD*%
%TO.C,R603*%
X226253100Y-118250001D03*
X224603100Y-118250001D03*
%TD*%
D40*
%TO.C,C3*%
X200793100Y-93750001D03*
X201753100Y-93750001D03*
%TD*%
D38*
%TO.C,R612*%
X215128100Y-82905001D03*
X215128100Y-81255001D03*
%TD*%
D39*
%TO.C,C215*%
X225015600Y-83750001D03*
X225015600Y-81850001D03*
%TD*%
D44*
%TO.C,C217*%
X198128100Y-83037501D03*
X199678100Y-83037501D03*
%TD*%
D38*
%TO.C,R202*%
X193003100Y-94700001D03*
X193003100Y-93050001D03*
%TD*%
D23*
%TO.C,R12*%
X218833100Y-90100001D03*
X219853100Y-90100001D03*
%TD*%
D35*
%TO.C,J5*%
X187803100Y-69150001D03*
X195703100Y-69150001D03*
D36*
X189253100Y-72275001D03*
X190253100Y-72275001D03*
X191253100Y-72275001D03*
X192253100Y-72275001D03*
X193253100Y-72275001D03*
X194253100Y-72275001D03*
%TD*%
D18*
%TO.C,R203*%
X194028100Y-126900001D03*
X192378100Y-126900001D03*
%TD*%
D77*
%TO.C,R4*%
X204903100Y-99300001D03*
X204903100Y-98280001D03*
%TD*%
D19*
%TO.C,C207*%
X195303100Y-89850001D03*
X193403100Y-89850001D03*
%TD*%
D77*
%TO.C,R2*%
X206503100Y-84610001D03*
X206503100Y-83590001D03*
%TD*%
D78*
%TO.C,U201*%
X189603100Y-92200001D03*
X190553100Y-92200001D03*
X191503100Y-92200001D03*
X191503100Y-94475001D03*
X190553100Y-94475001D03*
X189603100Y-94475001D03*
%TD*%
D79*
%TO.C,L203*%
X226290600Y-80250001D03*
X224715600Y-80250001D03*
%TD*%
D20*
%TO.C,C209*%
X190653100Y-75575001D03*
X189103100Y-75575001D03*
%TD*%
D39*
%TO.C,C214*%
X227003100Y-83750001D03*
X227003100Y-81850001D03*
%TD*%
D19*
%TO.C,C212*%
X228553100Y-77000001D03*
X226653100Y-77000001D03*
%TD*%
D18*
%TO.C,R501*%
X228653100Y-97575001D03*
X227003100Y-97575001D03*
%TD*%
D37*
%TO.C,C19*%
X216883100Y-93350001D03*
X215923100Y-93350001D03*
%TD*%
D31*
%TO.C,C604*%
X229993100Y-104865001D03*
X229993100Y-103315001D03*
%TD*%
D37*
%TO.C,C21*%
X216883100Y-88600001D03*
X215923100Y-88600001D03*
%TD*%
D23*
%TO.C,R17*%
X215913100Y-95550001D03*
X216933100Y-95550001D03*
%TD*%
D25*
%TO.C,R607*%
X193603100Y-103325001D03*
X193603100Y-104975001D03*
%TD*%
%LPD*%
M02*
