%TF.GenerationSoftware,KiCad,Pcbnew,9.0.6*%
%TF.CreationDate,2026-01-17T11:58:25+01:00*%
%TF.ProjectId,peak,7065616b-2e6b-4696-9361-645f70636258,rev?*%
%TF.SameCoordinates,Original*%
%TF.FileFunction,Copper,L3,Inr*%
%TF.FilePolarity,Positive*%
%FSLAX46Y46*%
G04 Gerber Fmt 4.6, Leading zero omitted, Abs format (unit mm)*
G04 Created by KiCad (PCBNEW 9.0.6) date 2026-01-17 11:58:25*
%MOMM*%
%LPD*%
G01*
G04 APERTURE LIST*
%TA.AperFunction,ViaPad*%
%ADD10C,0.600000*%
%TD*%
%TA.AperFunction,ViaPad*%
%ADD11C,0.450000*%
%TD*%
G04 APERTURE END LIST*
D10*
%TO.N,GND*%
X200053100Y-124700001D03*
X200053100Y-125450001D03*
X200053100Y-127000001D03*
X188653100Y-129200001D03*
X187703100Y-126950001D03*
X187728100Y-124600001D03*
X187728100Y-122300001D03*
D11*
X223003100Y-76475001D03*
X205433100Y-80270001D03*
D10*
X191503100Y-92200001D03*
X195028100Y-82925001D03*
X190303100Y-99200001D03*
X208803100Y-91200001D03*
X188003100Y-99200001D03*
X223733100Y-77150001D03*
D11*
X203253100Y-81390001D03*
X209023100Y-82270001D03*
D10*
X193028100Y-82925001D03*
X195303100Y-89850001D03*
D11*
X208153100Y-83060001D03*
X204123100Y-80620001D03*
D10*
X192603100Y-99200001D03*
X190553100Y-80800001D03*
D11*
X207373100Y-83480001D03*
D10*
X223753100Y-80290001D03*
X195303100Y-85900001D03*
X225753100Y-127300001D03*
D11*
X204533100Y-83210001D03*
D10*
X195303100Y-87890001D03*
D11*
%TO.N,+3.3V*%
X201553100Y-95090001D03*
X205613100Y-95370001D03*
%TO.N,/MCU/FLASH_CS*%
X202963100Y-95935001D03*
X196153100Y-95090001D03*
%TO.N,/MCU/FLASH_WP*%
X196153100Y-97630001D03*
X203713100Y-96623001D03*
%TO.N,/MCU/FLASH_Q*%
X204853100Y-95440001D03*
X196153100Y-96360001D03*
%TD*%
%TA.AperFunction,Conductor*%
%TO.N,VBUS*%
G36*
X193746139Y-95319686D02*
G01*
X193791894Y-95372490D01*
X193803100Y-95424001D01*
X193803100Y-130076001D01*
X193783415Y-130143040D01*
X193730611Y-130188795D01*
X193679100Y-130200001D01*
X186927100Y-130200001D01*
X186860061Y-130180316D01*
X186814306Y-130127512D01*
X186803100Y-130076001D01*
X186803100Y-129120944D01*
X188052600Y-129120944D01*
X188052600Y-129279058D01*
X188091572Y-129424501D01*
X188093523Y-129431784D01*
X188093526Y-129431791D01*
X188172575Y-129568710D01*
X188172579Y-129568715D01*
X188172580Y-129568717D01*
X188284384Y-129680521D01*
X188284386Y-129680522D01*
X188284390Y-129680525D01*
X188420504Y-129759109D01*
X188421316Y-129759578D01*
X188574043Y-129800501D01*
X188574045Y-129800501D01*
X188732155Y-129800501D01*
X188732157Y-129800501D01*
X188884884Y-129759578D01*
X189021816Y-129680521D01*
X189133620Y-129568717D01*
X189212677Y-129431785D01*
X189253600Y-129279058D01*
X189253600Y-129120944D01*
X189212677Y-128968217D01*
X189212673Y-128968210D01*
X189133624Y-128831291D01*
X189133618Y-128831283D01*
X189021817Y-128719482D01*
X189021809Y-128719476D01*
X188884890Y-128640427D01*
X188884886Y-128640425D01*
X188884884Y-128640424D01*
X188732157Y-128599501D01*
X188574043Y-128599501D01*
X188421316Y-128640424D01*
X188421309Y-128640427D01*
X188284390Y-128719476D01*
X188284382Y-128719482D01*
X188172581Y-128831283D01*
X188172575Y-128831291D01*
X188093526Y-128968210D01*
X188093523Y-128968217D01*
X188052600Y-129120944D01*
X186803100Y-129120944D01*
X186803100Y-126870944D01*
X187102600Y-126870944D01*
X187102600Y-127029057D01*
X187143523Y-127181784D01*
X187143526Y-127181791D01*
X187222575Y-127318710D01*
X187222579Y-127318715D01*
X187222580Y-127318717D01*
X187334384Y-127430521D01*
X187334386Y-127430522D01*
X187334390Y-127430525D01*
X187471309Y-127509574D01*
X187471316Y-127509578D01*
X187624043Y-127550501D01*
X187624045Y-127550501D01*
X187782155Y-127550501D01*
X187782157Y-127550501D01*
X187934884Y-127509578D01*
X188071816Y-127430521D01*
X188183620Y-127318717D01*
X188262677Y-127181785D01*
X188303600Y-127029058D01*
X188303600Y-126870944D01*
X188262677Y-126718217D01*
X188262673Y-126718210D01*
X188183624Y-126581291D01*
X188183618Y-126581283D01*
X188071817Y-126469482D01*
X188071809Y-126469476D01*
X187934890Y-126390427D01*
X187934886Y-126390425D01*
X187934884Y-126390424D01*
X187782157Y-126349501D01*
X187624043Y-126349501D01*
X187471316Y-126390424D01*
X187471309Y-126390427D01*
X187334390Y-126469476D01*
X187334382Y-126469482D01*
X187222581Y-126581283D01*
X187222575Y-126581291D01*
X187143526Y-126718210D01*
X187143523Y-126718217D01*
X187102600Y-126870944D01*
X186803100Y-126870944D01*
X186803100Y-124520944D01*
X187127600Y-124520944D01*
X187127600Y-124679057D01*
X187168523Y-124831784D01*
X187168526Y-124831791D01*
X187247575Y-124968710D01*
X187247579Y-124968715D01*
X187247580Y-124968717D01*
X187359384Y-125080521D01*
X187359386Y-125080522D01*
X187359390Y-125080525D01*
X187496309Y-125159574D01*
X187496316Y-125159578D01*
X187649043Y-125200501D01*
X187649045Y-125200501D01*
X187807155Y-125200501D01*
X187807157Y-125200501D01*
X187959884Y-125159578D01*
X188096816Y-125080521D01*
X188208620Y-124968717D01*
X188287677Y-124831785D01*
X188328600Y-124679058D01*
X188328600Y-124520944D01*
X188287677Y-124368217D01*
X188287673Y-124368210D01*
X188208624Y-124231291D01*
X188208618Y-124231283D01*
X188096817Y-124119482D01*
X188096809Y-124119476D01*
X187959890Y-124040427D01*
X187959886Y-124040425D01*
X187959884Y-124040424D01*
X187807157Y-123999501D01*
X187649043Y-123999501D01*
X187496316Y-124040424D01*
X187496309Y-124040427D01*
X187359390Y-124119476D01*
X187359382Y-124119482D01*
X187247581Y-124231283D01*
X187247575Y-124231291D01*
X187168526Y-124368210D01*
X187168523Y-124368217D01*
X187127600Y-124520944D01*
X186803100Y-124520944D01*
X186803100Y-122220944D01*
X187127600Y-122220944D01*
X187127600Y-122379057D01*
X187168523Y-122531784D01*
X187168526Y-122531791D01*
X187247575Y-122668710D01*
X187247579Y-122668715D01*
X187247580Y-122668717D01*
X187359384Y-122780521D01*
X187359386Y-122780522D01*
X187359390Y-122780525D01*
X187496309Y-122859574D01*
X187496316Y-122859578D01*
X187649043Y-122900501D01*
X187649045Y-122900501D01*
X187807155Y-122900501D01*
X187807157Y-122900501D01*
X187959884Y-122859578D01*
X188096816Y-122780521D01*
X188208620Y-122668717D01*
X188287677Y-122531785D01*
X188328600Y-122379058D01*
X188328600Y-122220944D01*
X188287677Y-122068217D01*
X188287673Y-122068210D01*
X188208624Y-121931291D01*
X188208618Y-121931283D01*
X188096817Y-121819482D01*
X188096809Y-121819476D01*
X187959890Y-121740427D01*
X187959886Y-121740425D01*
X187959884Y-121740424D01*
X187807157Y-121699501D01*
X187649043Y-121699501D01*
X187496316Y-121740424D01*
X187496309Y-121740427D01*
X187359390Y-121819476D01*
X187359382Y-121819482D01*
X187247581Y-121931283D01*
X187247575Y-121931291D01*
X187168526Y-122068210D01*
X187168523Y-122068217D01*
X187127600Y-122220944D01*
X186803100Y-122220944D01*
X186803100Y-99120944D01*
X187402600Y-99120944D01*
X187402600Y-99279057D01*
X187443523Y-99431784D01*
X187443526Y-99431791D01*
X187522575Y-99568710D01*
X187522579Y-99568715D01*
X187522580Y-99568717D01*
X187634384Y-99680521D01*
X187634386Y-99680522D01*
X187634390Y-99680525D01*
X187771309Y-99759574D01*
X187771316Y-99759578D01*
X187924043Y-99800501D01*
X187924045Y-99800501D01*
X188082155Y-99800501D01*
X188082157Y-99800501D01*
X188234884Y-99759578D01*
X188371816Y-99680521D01*
X188483620Y-99568717D01*
X188562677Y-99431785D01*
X188603600Y-99279058D01*
X188603600Y-99120944D01*
X189702600Y-99120944D01*
X189702600Y-99279057D01*
X189743523Y-99431784D01*
X189743526Y-99431791D01*
X189822575Y-99568710D01*
X189822579Y-99568715D01*
X189822580Y-99568717D01*
X189934384Y-99680521D01*
X189934386Y-99680522D01*
X189934390Y-99680525D01*
X190071309Y-99759574D01*
X190071316Y-99759578D01*
X190224043Y-99800501D01*
X190224045Y-99800501D01*
X190382155Y-99800501D01*
X190382157Y-99800501D01*
X190534884Y-99759578D01*
X190671816Y-99680521D01*
X190783620Y-99568717D01*
X190862677Y-99431785D01*
X190903600Y-99279058D01*
X190903600Y-99120944D01*
X192002600Y-99120944D01*
X192002600Y-99279057D01*
X192043523Y-99431784D01*
X192043526Y-99431791D01*
X192122575Y-99568710D01*
X192122579Y-99568715D01*
X192122580Y-99568717D01*
X192234384Y-99680521D01*
X192234386Y-99680522D01*
X192234390Y-99680525D01*
X192371309Y-99759574D01*
X192371316Y-99759578D01*
X192524043Y-99800501D01*
X192524045Y-99800501D01*
X192682155Y-99800501D01*
X192682157Y-99800501D01*
X192834884Y-99759578D01*
X192971816Y-99680521D01*
X193083620Y-99568717D01*
X193162677Y-99431785D01*
X193203600Y-99279058D01*
X193203600Y-99120944D01*
X193162677Y-98968217D01*
X193162673Y-98968210D01*
X193083624Y-98831291D01*
X193083618Y-98831283D01*
X192971817Y-98719482D01*
X192971809Y-98719476D01*
X192834890Y-98640427D01*
X192834886Y-98640425D01*
X192834884Y-98640424D01*
X192682157Y-98599501D01*
X192524043Y-98599501D01*
X192371316Y-98640424D01*
X192371309Y-98640427D01*
X192234390Y-98719476D01*
X192234382Y-98719482D01*
X192122581Y-98831283D01*
X192122575Y-98831291D01*
X192043526Y-98968210D01*
X192043523Y-98968217D01*
X192002600Y-99120944D01*
X190903600Y-99120944D01*
X190862677Y-98968217D01*
X190862673Y-98968210D01*
X190783624Y-98831291D01*
X190783618Y-98831283D01*
X190671817Y-98719482D01*
X190671809Y-98719476D01*
X190534890Y-98640427D01*
X190534886Y-98640425D01*
X190534884Y-98640424D01*
X190382157Y-98599501D01*
X190224043Y-98599501D01*
X190071316Y-98640424D01*
X190071309Y-98640427D01*
X189934390Y-98719476D01*
X189934382Y-98719482D01*
X189822581Y-98831283D01*
X189822575Y-98831291D01*
X189743526Y-98968210D01*
X189743523Y-98968217D01*
X189702600Y-99120944D01*
X188603600Y-99120944D01*
X188562677Y-98968217D01*
X188562673Y-98968210D01*
X188483624Y-98831291D01*
X188483618Y-98831283D01*
X188371817Y-98719482D01*
X188371809Y-98719476D01*
X188234890Y-98640427D01*
X188234886Y-98640425D01*
X188234884Y-98640424D01*
X188082157Y-98599501D01*
X187924043Y-98599501D01*
X187771316Y-98640424D01*
X187771309Y-98640427D01*
X187634390Y-98719476D01*
X187634382Y-98719482D01*
X187522581Y-98831283D01*
X187522575Y-98831291D01*
X187443526Y-98968210D01*
X187443523Y-98968217D01*
X187402600Y-99120944D01*
X186803100Y-99120944D01*
X186803100Y-95424001D01*
X186822785Y-95356962D01*
X186875589Y-95311207D01*
X186927100Y-95300001D01*
X193679100Y-95300001D01*
X193746139Y-95319686D01*
G37*
%TD.AperFunction*%
%TD*%
M02*
