M48
; DRILL file {KiCad 9.0.6} date 2026-01-17T11:58:26+0100
; FORMAT={-:-/ absolute / inch / decimal}
; #@! TF.CreationDate,2026-01-17T11:58:26+01:00
; #@! TF.GenerationSoftware,Kicad,Pcbnew,9.0.6
; #@! TF.FileFunction,Plated,1,6,PTH
FMAT,2
INCH
; #@! TA.AperFunction,Plated,PTH,ViaDrill
T1C0.0118
%
G90
G05
T1
X7.3899Y-4.998
X7.3909Y-4.815
X7.3909Y-4.9055
X7.4017Y-3.9055
X7.4273Y-5.0866
X7.4922Y-3.9055
X7.5021Y-3.1811
X7.5395Y-3.6299
X7.5828Y-3.9055
X7.5995Y-3.2648
X7.6783Y-3.2648
X7.6891Y-3.3819
X7.6891Y-3.4602
X7.6891Y-3.5374
X7.7226Y-3.7437
X7.7226Y-3.7937
X7.7226Y-3.8437
X7.8761Y-4.9094
X7.8761Y-4.939
X7.8761Y-5.0
X7.9352Y-3.7437
X7.9907Y-3.777
X8.0021Y-3.2043
X8.0202Y-3.8041
X8.0363Y-3.174
X8.0525Y-3.276
X8.0651Y-3.7575
X8.0879Y-3.1602
X8.095Y-3.7547
X8.1643Y-3.2866
X8.195Y-3.2701
X8.2206Y-3.5906
X8.2293Y-3.239
X8.7796Y-3.0108
X8.8084Y-3.0374
X8.8092Y-3.161
X8.8879Y-5.0118
M30
